<?xml version="1.0" encoding="UTF-8" standalone="no"?>
<!-- Created with Inkscape (http://www.inkscape.org/) -->

<svg
   width="210mm"
   height="297mm"
   viewBox="0 0 210 297"
   version="1.1"
   id="svg5"
   inkscape:version="1.2.2 (732a01da63, 2022-12-09)"
   sodipodi:docname="background_margin.svg"
   xmlns:inkscape="http://www.inkscape.org/namespaces/inkscape"
   xmlns:sodipodi="http://sodipodi.sourceforge.net/DTD/sodipodi-0.dtd"
   xmlns="http://www.w3.org/2000/svg"
   xmlns:svg="http://www.w3.org/2000/svg">
  <sodipodi:namedview
     id="namedview7"
     pagecolor="#ffffff"
     bordercolor="#000000"
     borderopacity="0.25"
     inkscape:showpageshadow="2"
     inkscape:pageopacity="0.0"
     inkscape:pagecheckerboard="0"
     inkscape:deskcolor="#d1d1d1"
     inkscape:document-units="mm"
     showgrid="false"
     inkscape:zoom="0.75544332"
     inkscape:cx="397.11781"
     inkscape:cy="561.25984"
     inkscape:window-width="1920"
     inkscape:window-height="1046"
     inkscape:window-x="-11"
     inkscape:window-y="-11"
     inkscape:window-maximized="1"
     inkscape:current-layer="layer1" />
  <defs
     id="defs2">
    <linearGradient
       id="linearGradient1616"
       inkscape:swatch="solid">
      <stop
         style="stop-color:#000000;stop-opacity:1;"
         offset="0"
         id="stop1614" />
    </linearGradient>
    <pattern
       id="EMFhbasepattern"
       patternUnits="userSpaceOnUse"
       width="6"
       height="6"
       x="0"
       y="0" />
  </defs>
  <g
     inkscape:label="Calque 1"
     inkscape:groupmode="layer"
     id="layer1">
    <path
       style="fill:none;stroke:#000000;stroke-width:0.264583;fill-opacity:1;stroke-opacity:1"
       d="M 74.930502,45.348019 H 139.41384 V 126.96802 H 74.930502 Z"
       id="path689" />
    <path
       style="fill:none;fill-opacity:1;fill-rule:nonzero;stroke:#000000;stroke-width:0.965;stroke-dasharray:none;stroke-opacity:1"
       d="m 121.80238,106.20969 v 0 l 0.011,0.011 -0.011,-0.011 0.011,0.011 -0.0552,-0.0331 v 0 l -0.0773,-0.0442 -0.0442,-0.0221 -0.11042,-0.0552 -0.0221,-0.011 -0.14354,-0.0662 -0.0331,-0.011 -0.17667,-0.0663 -0.0331,-0.011 -0.22083,-0.0773 -0.0331,-0.011 -0.265,-0.0773 -0.0442,-0.011 -0.27605,-0.0552 -0.0663,-0.011 -0.3202,-0.0331 h -0.0773 -0.33125 -0.0773 l -0.3975,0.0442 -0.0773,0.011 -0.45271,0.11041 -0.0773,0.0221 -0.47479,0.16563 -0.0773,0.0331 -0.45271,0.22083 -0.0773,0.0552 -0.45271,0.30917 -0.0662,0.0442 -0.46375,0.41958 -0.0552,0.0552 -0.43063,0.46375 -0.0442,0.0552 -0.37541,0.49688 -0.0442,0.0773 -0.29813,0.53 -0.0331,0.0773 -0.22084,0.56312 -0.0331,0.0773 -0.14354,0.57417 -0.0221,0.0773 -0.0773,0.57416 -0.011,0.0662 -0.0221,0.53 0.011,0.0883 0.0442,0.4748 0.0221,0.11041 0.11042,0.3975 0.0442,0.1325 0.16562,0.32021 c 0.0221,0.0442 0.0552,0.0883 0.0883,0.1325 l 0.22084,0.265 c 0.0442,0.0442 0.0883,0.0883 0.14354,0.12146 l 0.27604,0.18771 c 0.0552,0.0442 0.11042,0.0662 0.17667,0.0883 l 0.32021,0.11042 c 0.0552,0.011 0.0994,0.0221 0.15458,0.0331 l 0.38646,0.0331 h 0.1325 l 0.45271,-0.0552 0.11041,-0.0221 0.49688,-0.1325 0.0883,-0.0331 0.48583,-0.22084 0.0883,-0.0442 0.49688,-0.32021 0.0662,-0.0552 0.48583,-0.40854 0.0442,-0.0442 0.47479,-0.47479 0.0331,-0.0442 0.43063,-0.51896 0.0331,-0.0442 0.38645,-0.55208 0.0442,-0.0662 0.29813,-0.54104 0.0331,-0.0773 0.19875,-0.47479 0.0221,-0.0883 0.0994,-0.41959 0.0221,-0.1325 0.0221,-0.3975 c 0,-0.0552 0,-0.11041 -0.011,-0.16562 l -0.0662,-0.32021 -0.0331,-0.1325 -0.11042,-0.28708 -0.0662,-0.11042 -0.16562,-0.27604 -0.0883,-0.0994 -0.22084,-0.24292 -0.0994,-0.0883 -0.265,-0.18771 -0.11041,-0.0662 -0.30917,-0.14354 -0.1325,-0.0552 -0.3975,-0.0883 -0.1325,-0.0221 -0.46375,-0.011 h -0.11042 l -0.53,0.0662 -0.0994,0.011 -0.56312,0.15458 -0.0883,0.0331 -0.55208,0.23188 -0.0773,0.0442 -0.51896,0.29812 -0.0883,0.0552 -0.40854,0.3423 -0.0773,0.0663 -0.37542,0.41958 -0.0552,0.0773 -0.3202,0.47479 -0.0442,0.0883 -0.20979,0.46375 -0.0442,0.0994 -0.12146,0.44167 -0.0221,0.11041 -0.0442,0.44167 -0.011,0.1325 0.0442,0.3975 0.0221,0.1325 0.0994,0.34229 c 0.011,0.0552 0.0331,0.0994 0.0662,0.14354 l 0.1877,0.3423 c 0.0331,0.0552 0.0662,0.0994 0.0994,0.13249 l 0.27605,0.28709 c 0.0442,0.0442 0.0773,0.0773 0.12145,0.0994 l 0.35334,0.23187 0.12146,0.0663 0.47479,0.18771 0.11041,0.0331 0.53,0.12146 0.11042,0.011 0.64042,0.0331 h 0.0994 l 0.75083,-0.0773 0.0883,-0.011 0.73979,-0.16563 0.0663,-0.0221 0.68459,-0.22083 0.0662,-0.0331 0.60729,-0.27604 0.0773,-0.0442 0.54104,-0.3423 0.0773,-0.0552 0.40854,-0.36437 0.0773,-0.0662 0.33125,-0.3975 0.0662,-0.0773 0.265,-0.41959 0.0442,-0.0994 0.16563,-0.37541 0.0331,-0.11042 0.0883,-0.35333 0.0221,-0.11042 0.0221,-0.30917 v -0.12145 l -0.0331,-0.29813 c -0.011,-0.0552 -0.0221,-0.12146 -0.0442,-0.16562 l -0.0994,-0.28709 c -0.0331,-0.0662 -0.0662,-0.12145 -0.11042,-0.17666 l -0.16562,-0.23188 c -0.0442,-0.0442 -0.0883,-0.0883 -0.14354,-0.1325 l -0.25396,-0.18771 c -0.0442,-0.0331 -0.0883,-0.0552 -0.14354,-0.0773 l -0.33125,-0.14354 -0.12146,-0.0331 -0.43063,-0.0883 -0.0883,-0.0221 -0.46374,-0.0331 h -0.0883 l -0.50792,0.0221 -0.0883,0.011 -0.55209,0.0994 -0.0773,0.0221 -0.55208,0.17667 -0.0773,0.0221 -0.56313,0.24292 -0.0552,0.0331 -0.54104,0.30916 -0.0552,0.0331 -0.46375,0.32021 -0.0552,0.0331 -0.35333,0.30917 -0.0663,0.0552 -0.29813,0.32021 -0.0662,0.0883 -0.20979,0.30917 c -0.0221,0.0331 -0.0442,0.0773 -0.0662,0.12145 l -0.11042,0.30917 c -0.0221,0.0552 -0.0442,0.11042 -0.0442,0.16563 l -0.0331,0.26499 c -0.011,0.0662 0,0.13251 0,0.18771 l 0.0442,0.24292 c 0.011,0.0662 0.0331,0.1325 0.0662,0.18771 l 0.0994,0.20979 c 0.0442,0.0883 0.11042,0.17667 0.19875,0.24292 l 0.18771,0.1325 0.0221,0.0221 0.16563,0.11041 c 0.0552,0.0331 0.11041,0.0552 0.16562,0.0773 l 0.20979,0.0663 c 0.0883,0.0331 0.17667,0.0442 0.265,0.0331 l 0.36438,-0.0221 0.1325,-0.0221 0.38646,-0.0994 0.0994,-0.0331 0.4527,-0.19875 0.0883,-0.0552 0.48584,-0.29812 0.0773,-0.0442 0.48583,-0.3975 0.0552,-0.0442 0.41958,-0.43063 0.0442,-0.0442 0.35334,-0.41958 0.0331,-0.0331 0.25396,-0.34229 0.0221,-0.0331 0.20979,-0.30917 0.0442,-0.0883 0.1325,-0.265 c 0.0221,-0.0442 0.0331,-0.0994 0.0442,-0.14354 l 0.0442,-0.23188 c 0.0221,-0.0552 0.0221,-0.12145 0.0221,-0.1877 l -0.0221,-0.19875 c 0,-0.0773 -0.0221,-0.15459 -0.0552,-0.23188 l -0.0883,-0.18771 c -0.0331,-0.0773 -0.0773,-0.15458 -0.14354,-0.20979 l -0.0994,-0.11041 c -0.11042,-0.0994 -0.24292,-0.16563 -0.38646,-0.18771 l -0.19875,-0.0331 h -0.0331 l -0.22084,-0.0331 h -0.13249 l -0.27605,0.0331 c -0.0663,0 -0.14354,0.0221 -0.20979,0.0442 l -0.36437,0.16563 -0.1325,0.0662 -0.37542,0.25395 -0.0773,0.0773 -0.35333,0.3423 -0.0773,0.0773 -0.32021,0.41958 -0.0552,0.0773 -0.265,0.46374 -0.0331,0.0773 -0.22083,0.48584 -0.0221,0.0552 -0.14354,0.43062 -0.011,0.0442 -0.0994,0.37542 -0.0221,0.0883 -0.0331,0.34229 c -0.011,0.0552 -0.011,0.12146 0,0.17667 l 0.0221,0.19875 0.0331,0.11041 0.0552,0.17667 0.011,0.0442 0.0662,0.17667 c 0.0773,0.22083 0.25396,0.37541 0.47479,0.43062 l 0.20979,0.0552 0.0331,0.011 0.19875,0.0331 c 0.0552,0.011 0.11042,0.011 0.15459,0.011 l 0.22083,-0.011 c 0.0773,0 0.15458,-0.0221 0.22083,-0.0442 l 0.37542,-0.15458 0.0994,-0.0442 0.36437,-0.22083 0.0662,-0.0442 0.41959,-0.33125 0.0552,-0.0442 0.3975,-0.3975 0.0552,-0.0552 0.36437,-0.44167 0.0442,-0.0552 0.29813,-0.45271 0.0331,-0.0662 0.20979,-0.3975 0.0442,-0.0994 0.1325,-0.3975 c 0.0221,-0.0552 0.0331,-0.11041 0.0331,-0.17667 l 0.0221,-0.28708 c 0,-0.0662 0,-0.12146 -0.011,-0.17666 l -0.0552,-0.26501 -0.0331,-0.11041 -0.0994,-0.25396 c -0.0552,-0.15458 -0.16563,-0.28708 -0.30917,-0.36438 l -0.24292,-0.14354 -0.0994,-0.0442 -0.29812,-0.11041 -0.1325,-0.0331 -0.33125,-0.0552 c -0.0442,-0.011 -0.0994,-0.011 -0.14354,-0.011 l -0.37542,0.0221 -0.1325,0.011 -0.45271,0.12146 -0.0883,0.0221 -0.40854,0.17666 -0.0662,0.0331 -0.43062,0.23188 -0.0663,0.0442 -0.38646,0.27604 -0.0662,0.0662 -0.30917,0.29812 -0.0773,0.0773 -0.22083,0.29813 -0.0662,0.0994 -0.14357,0.29815 c -0.0331,0.0442 -0.0442,0.0994 -0.0552,0.15459 l -0.0662,0.27604 c -0.011,0.0552 -0.0221,0.0994 -0.0221,0.15458 l 0.011,0.27604 0.011,0.14354 0.0442,0.22084 0.0442,0.12146 0.0773,0.19875 0.0663,0.11041 0.0994,0.15458 c 0.0552,0.0773 0.12146,0.14355 0.19875,0.19875 l 0.16563,0.0994 c 0.0994,0.0662 0.19875,0.0994 0.30916,0.11042 l 0.2098,0.0221 h 0.0221 l 0.19875,0.0221 0.14354,-0.011 0.23187,-0.0331 c 0.0773,-0.011 0.14354,-0.0331 0.20979,-0.0663 l 0.28709,-0.14354 c 0.0552,-0.0221 0.0994,-0.0442 0.1325,-0.0773 l 0.25396,-0.20979 0.0773,-0.0883 0.23187,-0.265 0.0552,-0.0663 0.19875,-0.29813 0.0331,-0.0442 0.16563,-0.30917 0.0331,-0.0663 0.0994,-0.265 0.0221,-0.0552 0.0552,-0.19875 v -0.011 l 0.0442,-0.14354 c 0.0994,-0.36438 -0.11042,-0.75083 -0.4748,-0.85021 -0.36437,-0.0994 -0.75083,0.11042 -0.8502,0.47479 l -0.0442,0.15459 v -0.011 l -0.0552,0.19874 0.0221,-0.0663 -0.0994,0.25396 0.0331,-0.0662 -0.16563,0.29813 0.0331,-0.0552 -0.19875,0.29812 0.0552,-0.0662 -0.23188,0.265 0.0883,-0.0773 -0.25395,0.19875 0.1325,-0.0773 -0.28709,0.14355 0.20979,-0.0662 -0.23187,0.0331 0.14354,-0.011 -0.19875,-0.011 h 0.0221 l -0.20979,-0.0221 0.29812,0.11041 -0.16562,-0.11041 0.19875,0.19875 -0.0994,-0.15459 0.0552,0.11042 -0.0773,-0.18771 0.0331,0.12146 -0.0442,-0.23188 0.011,0.14355 v -0.27604 l -0.0221,0.16562 0.0662,-0.28708 -0.0552,0.15458 0.14354,-0.28708 -0.0662,0.11041 0.22083,-0.29812 -0.0662,0.0883 0.30917,-0.29813 -0.0773,0.0662 0.38646,-0.28708 -0.0662,0.0442 0.41958,-0.23188 -0.0662,0.0331 0.40854,-0.16562 -0.0994,0.0221 0.44167,-0.11042 -0.1325,0.0221 0.37542,-0.011 -0.15459,-0.011 0.3423,0.0552 -0.1325,-0.0331 0.29812,0.11042 -0.0883,-0.0442 0.25396,0.14354 -0.30917,-0.36437 0.0883,0.265 -0.0221,-0.11042 0.0442,0.265 -0.011,-0.16562 -0.011,0.28708 0.0331,-0.17667 -0.1325,0.38646 0.0442,-0.0994 -0.20979,0.40854 0.0331,-0.0662 -0.29812,0.45271 0.0442,-0.0552 -0.36437,0.44167 0.0442,-0.0552 -0.3975,0.38645 0.0552,-0.0442 -0.40855,0.32021 0.0662,-0.0442 -0.36437,0.22083 0.0994,-0.0552 -0.37542,0.15459 0.22083,-0.0442 h -0.20979 l 0.15459,0.011 -0.19875,-0.0331 0.0442,0.011 -0.19875,-0.0552 0.47479,0.43063 -0.0663,-0.18771 0.011,0.0442 -0.0552,-0.17667 0.0221,0.11042 -0.0331,-0.2098 0.011,0.17667 0.0331,-0.34229 -0.011,0.0883 0.0883,-0.37542 -0.011,0.0552 0.14354,-0.43062 -0.0221,0.0552 0.22083,-0.48584 -0.0331,0.0662 0.265,-0.46375 -0.0442,0.0662 0.32021,-0.43063 -0.0662,0.0773 0.35333,-0.34229 -0.0883,0.0773 0.37542,-0.265 -0.12146,0.0773 0.37542,-0.16562 -0.2098,0.0552 0.28709,-0.0221 h -0.1325 l 0.20979,0.0221 -0.0331,-0.011 0.20979,0.0331 -0.38645,-0.19875 0.0994,0.11041 -0.14355,-0.20979 0.0883,0.19875 -0.0552,-0.23187 0.011,0.19875 0.011,-0.19875 -0.0442,0.22083 0.0552,-0.14354 -0.1325,0.265 0.0552,-0.0883 -0.20979,0.30916 0.0331,-0.0331 -0.265,0.3423 0.0221,-0.0331 -0.35333,0.41958 0.0331,-0.0442 -0.43063,0.43062 0.0552,-0.0442 -0.48583,0.3975 0.0773,-0.0552 -0.48583,0.29813 0.0883,-0.0442 -0.46376,0.19875 0.0994,-0.0331 -0.38645,0.11042 0.1325,-0.0221 -0.36438,0.0221 0.265,0.0331 -0.20979,-0.0773 0.15458,0.0883 -0.16562,-0.11042 0.0331,0.0221 -0.17667,-0.1325 0.19875,0.24292 -0.0994,-0.19875 0.0662,0.18771 -0.0331,-0.23188 v 0.18771 l 0.0331,-0.26496 -0.0442,0.17667 0.11042,-0.29813 -0.0662,0.1325 0.20979,-0.30916 -0.0773,0.0883 0.29812,-0.32021 -0.0552,0.0552 0.36438,-0.29813 -0.0552,0.0331 0.46375,-0.32021 -0.0552,0.0331 0.54104,-0.29812 -0.0662,0.0331 0.56313,-0.24292 -0.0773,0.0221 0.56312,-0.17667 -0.0773,0.0221 0.54105,-0.0994 -0.0883,0.011 0.50791,-0.0221 h -0.0883 l 0.46376,0.0331 -0.0883,-0.011 0.43062,0.0883 -0.12146,-0.0331 0.33125,0.13251 -0.14354,-0.0773 0.265,0.1877 -0.14354,-0.1325 0.17667,0.22084 -0.0994,-0.17667 0.0994,0.27604 -0.0331,-0.16562 0.0331,0.29812 -0.011,-0.12146 -0.0221,0.30917 0.0221,-0.11042 -0.0883,0.34229 0.0331,-0.0994 -0.15459,0.37542 0.0442,-0.0883 -0.265,0.40854 0.0662,-0.0773 -0.34229,0.38646 0.0773,-0.0662 -0.41958,0.35333 0.0773,-0.0552 -0.53,0.3423 0.0883,-0.0442 -0.60729,0.27604 0.0662,-0.0331 -0.67354,0.23187 0.0552,-0.0221 -0.73979,0.17667 0.0883,-0.0221 -0.75084,0.0773 h 0.11042 l -0.64042,-0.0331 0.11042,0.011 -0.54104,-0.11042 0.11042,0.0331 -0.46376,-0.19875 0.11042,0.0662 -0.34229,-0.23187 0.11041,0.0994 -0.26499,-0.28708 0.0994,0.14354 -0.19875,-0.35334 0.0662,0.14354 -0.11042,-0.34229 0.0331,0.14354 -0.0331,-0.39749 v 0.1325 l 0.0442,-0.44167 -0.0221,0.12146 0.12146,-0.44167 -0.0331,0.0994 0.20979,-0.46375 -0.0442,0.0994 0.30917,-0.47479 -0.0662,0.0773 0.36437,-0.40854 -0.0773,0.0773 0.41958,-0.34229 -0.0883,0.0662 0.50792,-0.29813 -0.0773,0.0331 0.55208,-0.23187 -0.0883,0.0331 0.57417,-0.15459 -0.0994,0.0221 0.53,-0.0662 h -0.11042 l 0.47479,0.0221 -0.13249,-0.0221 0.38645,0.0994 -0.1325,-0.0552 0.29813,0.14355 -0.11042,-0.0662 0.27604,0.19875 -0.0994,-0.0883 0.23188,0.24291 -0.0773,-0.0994 0.16562,0.27604 -0.0552,-0.12146 0.11042,0.28709 -0.0331,-0.1325 0.0552,0.33125 -0.011,-0.15458 -0.011,0.39749 0.011,-0.1325 -0.0994,0.41959 0.0331,-0.0883 -0.19875,0.47479 0.0442,-0.0773 -0.29813,0.54104 0.0331,-0.0552 -0.38646,0.55209 0.0442,-0.0552 -0.44166,0.51896 0.0331,-0.0331 -0.46375,0.47479 0.0442,-0.0442 -0.47479,0.40854 0.0662,-0.0552 -0.49688,0.32021 0.0994,-0.0442 -0.48584,0.20979 0.0994,-0.0331 -0.48583,0.1325 0.11042,-0.0221 -0.46375,0.0552 h 0.14354 l -0.38646,-0.0331 0.16563,0.0331 -0.33125,-0.11042 0.17666,0.0773 -0.28708,-0.18771 0.1325,0.12146 -0.22083,-0.265 0.0883,0.1325 -0.16563,-0.32021 0.0552,0.1325 -0.11041,-0.3975 0.0221,0.12146 -0.0442,-0.47479 v 0.0994 l 0.0221,-0.53 -0.011,0.0773 0.0883,-0.57417 -0.011,0.0773 0.14354,-0.57416 -0.0221,0.0773 0.22083,-0.56313 -0.0442,0.0883 0.29813,-0.53 -0.0442,0.0663 0.36437,-0.49687 -0.0442,0.0552 0.43063,-0.46375 -0.0552,0.0552 0.46375,-0.41958 -0.0552,0.0552 0.45271,-0.30917 -0.0773,0.0442 0.44166,-0.23188 -0.0773,0.0331 0.4748,-0.16562 -0.0883,0.0221 0.46374,-0.0994 -0.0773,0.011 0.38646,-0.0442 h -0.0663 0.33125 -0.0773 l 0.33125,0.0331 -0.0662,-0.011 0.27604,0.0552 -0.0442,-0.011 0.25396,0.0773 -0.0331,-0.011 0.20979,0.0773 -0.0221,-0.011 0.17667,0.0662 -0.0221,-0.011 0.15458,0.0662 h -0.0221 l 0.11042,0.0442 -0.0442,-0.0221 0.0773,0.0442 v 0 l 0.0442,0.0331 h 0.011 0.011 l 0.011,0.011 v 0 c 0.34229,0.17666 0.75083,0.0552 0.93854,-0.27605 0.17667,-0.34229 0.0442,-0.75083 -0.28708,-0.93854 z"
       id="path691" />
    <path
       style="fill:none;fill-opacity:1;fill-rule:nonzero;stroke:#000000;stroke-width:0.965;stroke-dasharray:none;stroke-opacity:1"
       d="m 99.708002,120.04489 0.01104,-0.011 c 0.110416,-0.12146 0.165625,-0.28708 0.176666,-0.44166 v -0.0221 c 0,-0.17667 -0.07729,-0.36438 -0.209791,-0.49688 v 0 l -0.110417,-0.0883 -0.01104,-0.011 c -0.287083,-0.18771 -0.673541,-0.1325 -0.905416,0.1325 -0.220834,0.265 -0.209792,0.6625 0.02208,0.91646 0.242917,0.25396 0.629375,0.29812 0.916458,0.0883 v 0 l -0.320208,0.12146 h 0.03312 -0.06625 0.04417 -0.05521 0.06625 0.02208 l 0.110416,0.011 h 0.03313 l 0.154584,-0.011 h -0.03313 0.165625 v 0 l 0.176666,0.011 h 0.02208 0.198755 0.0221 l 0.23187,-0.011 h -0.011 l 0.30917,-0.011 h -0.011 0.36437 -0.011 0.40854 v 0 h 0.41959 v 0 h 0.41958 -0.011 0.38646 v 0 h 0.36437 0.011 0.33125 0.011 l 0.30917,-0.011 v 0 h 0.28709 -0.011 0.25395 -0.011 0.17667 -0.0221 l 0.16562,0.011 h 0.0331 0.1325 0.0221 l 0.0994,-0.011 h -0.0442 l 0.0773,0.011 -0.0552,-0.011 h 0.0221 l -0.15458,-0.0331 0.0221,0.011 c 0.30917,0.0994 0.65146,-0.0221 0.81708,-0.29813 0.16563,-0.27604 0.11042,-0.64042 -0.12146,-0.86125 -0.24291,-0.22083 -0.59625,-0.24291 -0.87229,-0.0552 v 0 l 0.18771,-0.0883 h -0.011 l 0.0331,-0.011 -0.011,0.011 0.011,-0.011 -0.0221,0.011 0.15458,-0.0221 h -0.011 l 0.12146,0.011 v 0 l 0.0331,0.011 h -0.011 l 0.32021,0.17667 v 0 l 0.0994,0.85021 v -0.011 c 0.14354,-0.23188 0.14354,-0.51896 0,-0.7398 l -0.011,-0.011 c -0.19875,-0.30916 -0.62938,-0.40854 -0.94959,-0.19875 -0.3202,0.20979 -0.40854,0.64042 -0.19875,0.94959 v 0.011 -0.73979 l -0.011,0.011 c -0.16562,0.27604 -0.1325,0.62937 0.0994,0.85021 v 0.011 c 0.0883,0.0883 0.19875,0.14354 0.32021,0.17666 h 0.0221 l 0.0331,0.011 h 0.011 l 0.12146,0.011 h 0.011 c 0.0552,0 0.0994,-0.011 0.15459,-0.0221 h 0.0221 0.011 l 0.011,-0.011 0.0442,-0.011 h 0.011 c 0.0662,-0.0221 0.1325,-0.0552 0.1877,-0.0883 l 0.011,-0.011 c 0.2098,-0.14354 0.32021,-0.40854 0.28709,-0.6625 -0.0331,-0.25396 -0.20979,-0.46375 -0.46375,-0.55208 l -0.011,-0.011 c -0.0552,-0.011 -0.0994,-0.0221 -0.15458,-0.0331 h -0.0331 -0.0442 -0.0773 -0.0331 -0.11042 0.0221 -0.1325 0.0442 l -0.16562,-0.011 h -0.011 -0.18771 -0.011 -0.25396 -0.011 -0.29812 v 0 l -0.30917,0.011 h 0.011 -0.33125 0.011 -0.37541 0.011 -0.38646 -0.011 -0.41959 v 0 h -0.41958 v 0 h -0.3975 v 0 l -0.36438,0.011 h -0.011 -0.29813 -0.011 l -0.23187,0.011 h 0.011 -0.198755 0.02208 -0.176666 -0.01104 l -0.165625,-0.011 h -0.03312 l -0.154583,0.011 h 0.03312 -0.110417 0.02208 -0.06625 l -0.05521,-0.011 -0.04417,0.011 h -0.06625 -0.02208 c -0.121458,0.0221 -0.231875,0.0662 -0.320208,0.1325 h -0.01103 c -0.176667,0.1325 -0.287083,0.34229 -0.276042,0.57417 0,0.22083 0.121459,0.43062 0.309167,0.56312 v 0 l -0.09937,-0.0883 v 0.011 l -0.198755,-0.49689 v 0.011 l 0.165625,-0.44167 -0.01104,0.011 c -0.242916,0.28709 -0.209791,0.71771 0.07729,0.97167 0.287083,0.24292 0.717708,0.22084 0.960625,-0.0663 z"
       id="path693" />
    <path
       style="fill:none;fill-opacity:1;fill-rule:nonzero;stroke:#000000;stroke-width:0.965;stroke-dasharray:none;stroke-opacity:1"
       d="m 89.196335,102.52177 0.01104,0.011 c 0.276042,0.24291 0.706667,0.20979 0.960625,-0.0662 0.242917,-0.27604 0.231875,-0.70667 -0.04417,-0.96063 v -0.011 h -0.01104 l -0.01104,-0.011 c -0.276042,-0.24291 -0.706667,-0.23187 -0.960625,0.0442 -0.253958,0.27605 -0.242917,0.70667 0.02208,0.96063 l 0.01104,0.011 v 0 l 0.01104,0.011 h -0.01104 l 0.04417,0.0442 v -0.011 l 0.09938,0.0994 0.03313,0.0331 0.187708,0.16562 0.05521,0.0442 0.287084,0.22083 h 0.01104 l 0.342292,0.24292 0.01104,0.011 0.419583,0.28709 v 0 l 0.46375,0.3202 v 0 l 0.485833,0.33125 -0.02208,-0.011 0.474792,0.35334 -0.03312,-0.0221 0.46375,0.38646 -0.02208,-0.0221 0.430625,0.38645 -0.01104,-0.011 0.419583,0.40855 v -0.011 l 0.386458,0.37541 v 0 l 0.364375,0.36438 v 0 l 0.342292,0.33125 0.01104,0.011 0.33125,0.30916 0.01104,0.011 0.287084,0.265 0.01104,0.011 0.287084,0.25396 0.01104,0.011 0.276042,0.23188 0.02208,0.0221 0.276042,0.20979 0.03313,0.0221 0.298125,0.20979 0.03313,0.0221 0.33125,0.20979 0.02208,0.011 0.33125,0.19875 h 0.01104 l 0.342292,0.19875 -0.02208,-0.011 0.320209,0.18771 -0.04417,-0.0331 0.253958,0.19875 -0.03312,-0.0331 0.220834,0.18771 -0.03313,-0.0221 0.176666,0.16562 -0.02208,-0.0221 0.165625,0.16563 -0.02208,-0.011 0.143541,0.15458 -0.01104,-0.011 0.154583,0.18771 0.01104,0.011 0.143541,0.17667 0.02208,0.0221 0.154583,0.15458 0.02208,0.0221 0.165625,0.15458 v 0.011 l 0.165625,0.15459 -0.01104,-0.011 0.143541,0.14354 -0.01104,-0.011 0.1325,0.12146 -0.02208,-0.011 0.121459,0.1325 -0.02208,-0.0331 0.09937,0.12146 -0.01104,-0.0221 0.08833,0.1325 v -0.011 l 0.06625,0.0883 v 0.011 l 0.03312,0.0331 v 0.011 l 0.01104,0.011 v 0 l 0.01104,0.011 c 0.231871,0.29812 0.662501,0.34229 0.960621,0.11042 0.29813,-0.23188 0.35334,-0.6625 0.12146,-0.96063 v -0.011 0 l -0.011,-0.011 v 0.011 l -0.0331,-0.0442 0.011,0.011 -0.0663,-0.0883 v 0 l -0.0994,-0.1325 -0.011,-0.0221 -0.11041,-0.1325 -0.0331,-0.0331 -0.12147,-0.12146 -0.011,-0.0221 -0.12146,-0.12145 -0.011,-0.011 -0.14354,-0.1325 v -0.011 l -0.16562,-0.14355 h 0.011 l -0.165629,-0.16562 0.01104,0.0221 -0.154583,-0.15459 0.02208,0.0221 -0.143542,-0.16562 0.01104,0.011 -0.154583,-0.18771 -0.01104,-0.0221 -0.143542,-0.15458 -0.02208,-0.0221 -0.154583,-0.17667 -0.02208,-0.0221 -0.176666,-0.16563 -0.03312,-0.0331 -0.220834,-0.18771 -0.04417,-0.0331 -0.265,-0.1877 -0.04417,-0.0331 -0.320208,-0.19876 -0.02208,-0.011 -0.33125,-0.18771 v 0 l -0.33125,-0.19875 0.01104,0.011 -0.33125,-0.20979 0.02208,0.0221 -0.298125,-0.20979 0.02208,0.0221 -0.276042,-0.22083 0.03313,0.0221 -0.287083,-0.23188 0.02208,0.011 -0.287083,-0.25396 v 0.011 l -0.287084,-0.27604 0.01104,0.011 -0.33125,-0.32021 v 0.011 l -0.342292,-0.33125 v 0 l -0.364375,-0.36437 v 0 l -0.386454,-0.3754 -0.01104,-0.011 -0.419583,-0.40854 -0.02208,-0.011 -0.430625,-0.38646 -0.02208,-0.011 -0.452708,-0.38646 -0.02208,-0.0221 -0.474804,-0.35334 -0.02208,-0.011 -0.485834,-0.34229 v 0 l -0.474791,-0.32021 v 0 l -0.408545,-0.28709 v 0.011 L 90.68696,101.99177 H 90.698 l -0.287083,-0.20979 0.04417,0.0331 -0.187708,-0.16563 0.03313,0.0331 -0.09937,-0.11042 h -0.01104 l -0.04417,-0.0442 -0.01104,-0.011 -0.01104,-0.011 v 0 0 c -0.176666,-0.17666 -0.441666,-0.24291 -0.673541,-0.16562 -0.242917,0.0662 -0.419584,0.265 -0.474792,0.50791 -0.05521,0.24292 0.02208,0.49688 0.209792,0.6625 v 0 h -0.01104 0.01104 c 0.176666,0.16563 0.441666,0.23188 0.673541,0.15459 0.242917,-0.0773 0.419584,-0.27604 0.46375,-0.51896 0.05521,-0.24292 -0.03313,-0.49688 -0.220833,-0.6625 v 0 c -0.287083,-0.25396 -0.72875,-0.22083 -0.971667,0.0662 -0.253958,0.28708 -0.220833,0.72875 0.06625,0.97167 z"
       id="path695" />
    <path
       style="fill:none;fill-opacity:1;fill-rule:nonzero;stroke:#000000;stroke-width:0.965;stroke-dasharray:none;stroke-opacity:1"
       d="m 93.038835,111.76364 v -0.011 0 l 0.01104,-0.0221 v 0 -0.011 0 l 0.01104,-0.0331 v 0 l 0.02208,-0.0662 v 0.0221 l 0.04417,-0.1325 -0.02208,0.0552 0.09938,-0.23187 -0.02208,0.0442 0.165625,-0.32021 v 0.0221 l 0.242917,-0.45271 v 0.011 l 0.298125,-0.51896 v 0.011 l 0.342291,-0.57416 v -0.011 l 0.364375,-0.62938 v 0 l 0.375417,-0.65146 -0.01104,0.0221 0.386459,-0.62937 h -0.01105 l 0.353333,-0.55209 v 0 l 0.320209,-0.50791 v 0 l 0.298125,-0.46375 v -0.011 l 0.242916,-0.3975 -0.01104,0.011 0.220833,-0.34229 -0.02208,0.0221 0.187708,-0.27605 -0.02208,0.0331 0.209791,-0.27604 -0.03313,0.0442 0.242917,-0.27604 -0.04417,0.0442 0.320209,-0.29813 -0.02208,0.0221 0.342292,-0.29812 -0.01104,0.011 0.364375,-0.28708 h -0.01104 l 0.364375,-0.27605 -0.01104,0.011 0.287083,-0.22083 v 0.011 l 0.187709,-0.14354 v 0 l 0.1325,-0.0994 c 0.309166,-0.23188 0.364375,-0.6625 0.143541,-0.96063 -0.231875,-0.30916 -0.6625,-0.37541 -0.960625,-0.14354 l -0.1325,0.0883 v 0.011 l -0.19875,0.14354 v 0 l -0.287083,0.20979 -0.01104,0.011 -0.353333,0.27605 h -0.01104 l -0.364375,0.29812 -0.01104,0.011 -0.353334,0.29813 -0.02208,0.0221 -0.320208,0.30916 -0.04417,0.0331 -0.242917,0.27604 -0.03312,0.0331 -0.19875,0.265 -0.03313,0.0331 -0.187708,0.27605 -0.01104,0.0331 -0.220833,0.34229 v 0.011 l -0.242917,0.38646 h 0.01104 l -0.287083,0.46375 v 0 l -0.320209,0.49687 v 0 l -0.353333,0.56312 H 94.1651 l -0.375416,0.62938 -0.01104,0.0221 -0.375417,0.65146 h -0.01104 l -0.353334,0.62937 0.01104,-0.011 -0.342292,0.57417 v 0 l -0.309166,0.51896 v 0.011 l -0.253959,0.44167 -0.01104,0.0221 -0.165625,0.3202 -0.02208,0.0442 -0.110416,0.23188 -0.01104,0.0552 -0.04417,0.12146 -0.01104,0.0221 -0.02208,0.0662 v 0 l -0.01104,0.0331 v 0 0.011 0 l -0.01104,0.0221 v 0 0.011 c -0.110417,0.36437 0.08833,0.75083 0.452708,0.86125 0.364375,0.11041 0.750834,-0.0883 0.86125,-0.45271 z"
       id="path697" />
    <path
       style="fill:none;fill-opacity:1;fill-rule:nonzero;stroke:#000000;stroke-width:0.965;stroke-dasharray:none;stroke-opacity:1"
       d="m 83.885294,95.466143 h -0.01104 0.01104 -0.01104 0.01104 -0.01104 0.02208 -0.03312 0.03312 -0.03312 0.02208 l -0.05521,0.01104 -0.04417,0.01104 -0.121458,0.02208 -0.06625,0.02208 -0.198751,0.05521 v 0.01104 l -0.276041,0.08833 h -0.01104 l -0.309166,0.09938 h -0.01104 l -0.320209,0.12146 h -0.01104 l -0.320208,0.121457 -0.02208,0.01104 -0.342292,0.143542 -0.03312,0.01104 -0.320208,0.154583 -0.03312,0.02208 -0.309167,0.165627 -0.03312,0.02208 -0.309166,0.19875 -0.04417,0.03313 -0.342292,0.264999 -0.05521,0.04417 -0.386458,0.375417 -0.05521,0.05521 -0.452708,0.541041 -0.04417,0.06625 -0.496875,0.761873 -0.02208,0.04417 -0.441667,0.806042 -0.01104,0.03313 -0.441667,0.894376 -0.01104,0.0331 -0.419583,0.97166 -0.01104,0.0331 -0.353333,0.94959 -0.01104,0.0331 -0.287084,0.91645 -0.01104,0.0331 -0.253958,0.94959 -0.01104,0.0221 -0.231875,1.04895 v 0.0331 l -0.176667,1.06 -0.01104,0.0221 -0.121458,1.02688 v 0.0331 l -0.07729,1.03791 v 0.0331 l -0.03312,1.09312 v 0.0331 l 0.02208,1.12625 0.01104,0.0331 0.08833,1.13729 0.01104,0.0552 0.154583,1.00479 0.01104,0.0552 0.220833,0.9275 0.02208,0.0442 0.265,0.85021 0.01104,0.0442 0.320209,0.795 0.02208,0.0442 0.342291,0.7177 0.02208,0.0442 0.375417,0.65146 0.02208,0.0442 0.375416,0.58521 0.02208,0.0331 0.386459,0.51896 0.02208,0.0221 0.386458,0.47479 0.02208,0.0221 0.441666,0.48583 0.02208,0.0221 0.496875,0.49688 0.02208,0.0221 0.541042,0.48583 0.03312,0.0221 0.607292,0.48584 0.02208,0.0221 0.640417,0.4527 0.02208,0.0221 0.695625,0.45271 0.02208,0.011 0.673541,0.3975 0.01104,0.011 0.673542,0.37542 0.02208,0.011 0.6625,0.33125 0.02208,0.011 0.651458,0.30917 0.02208,0.011 0.684583,0.29812 0.02208,0.011 0.684583,0.27604 h 0.02208 l 0.651459,0.24292 h 0.02208 l 0.684583,0.23187 h 0.02208 l 0.706666,0.2098 0.02208,0.011 0.695625,0.17666 0.02208,0.011 0.72875,0.16563 h 0.01104 l 0.750862,0.15458 h 0.02208 l 0.750834,0.12145 h 0.01104 l 0.739792,0.11042 h 0.02208 l 0.739792,0.0773 h 0.02208 l 0.772917,0.0662 h 0.02208 l 0.86125,0.0442 h 0.02208 l 0.905416,0.011 h 0.02208 l 0.949583,-0.011 h 0.01104 l 0.916458,-0.0331 v 0 l 0.872292,-0.0331 h 0.01104 l 0.894375,-0.0442 v 0 l 0.883339,-0.0442 v 0 l 0.86125,-0.0552 h 0.011 l 0.83916,-0.0442 v 0 l 0.80604,-0.0552 h 0.011 l 0.80605,-0.0552 v 0 l 0.87229,-0.0662 h 0.011 l 0.86125,-0.0552 v 0 l 0.85021,-0.0662 h 0.011 l 0.8502,-0.0663 v 0 l 0.80605,-0.0552 v 0 l 0.86125,-0.0663 v 0 l 0.83916,-0.0552 v 0 l 0.85021,-0.0552 v 0 l 0.83917,-0.0552 h -0.011 l 0.78396,-0.0552 v 0 l 0.77291,-0.0442 v 0 l 0.81709,-0.0442 v 0 l 0.81708,-0.0331 v 0 l 0.80604,-0.0331 h -0.011 l 0.81708,-0.0331 h -0.011 l 0.75083,-0.0221 v 0 l 0.76188,-0.011 h -0.011 0.80604 -0.011 l 0.82813,0.011 h -0.011 l 0.81708,0.0331 h -0.011 l 0.795,0.0331 v 0 l 0.76188,0.0442 v 0 l 0.795,0.0442 v 0 l 0.80604,0.0552 h 0.011 l 0.795,0.0442 v 0 l 0.78396,0.0331 h 0.011 l 0.72875,0.0221 h 0.011 l 0.69562,0.0221 h 0.011 l 0.65146,-0.011 h 0.0221 l 0.62938,-0.011 h 0.0221 l 0.66249,-0.0331 h 0.0221 l 0.70667,-0.0662 0.0442,-0.011 0.6625,-0.0994 0.0442,-0.011 0.62937,-0.14354 0.0552,-0.011 0.6073,-0.18771 0.0442,-0.0221 0.58521,-0.22083 0.0442,-0.011 0.51895,-0.24292 0.0442,-0.0221 0.49688,-0.265 0.0331,-0.011 0.54104,-0.3202 0.0331,-0.0221 0.56313,-0.36438 0.0221,-0.0221 0.5852,-0.44166 0.0442,-0.0331 0.49688,-0.43063 0.0442,-0.0331 0.44167,-0.44166 0.0331,-0.0442 0.36437,-0.43063 0.0331,-0.0442 0.33125,-0.46375 0.0331,-0.0442 0.30917,-0.51895 0.0221,-0.0442 0.29812,-0.6073 0.0221,-0.0442 0.27605,-0.68458 0.0221,-0.0442 0.23187,-0.75083 0.011,-0.0331 0.17666,-0.65146 0.011,-0.0221 0.15459,-0.69562 v -0.0331 l 0.14354,-0.72875 0.011,-0.0221 0.12146,-0.77292 v -0.0221 l 0.0994,-0.795 v -0.0221 l 0.0773,-0.80604 v -0.0221 l 0.0552,-0.81708 v -0.0221 l 0.0221,-0.82813 v -0.0221 l -0.011,-0.8502 v -0.0221 l -0.0331,-0.89438 v -0.0221 l -0.0662,-0.88333 -0.011,-0.0331 -0.0994,-0.85021 -0.011,-0.0331 -0.12146,-0.78395 -0.011,-0.0221 -0.15458,-0.7398 -0.011,-0.0331 -0.17667,-0.66249 -0.011,-0.0331 -0.18771,-0.6073 -0.011,-0.0331 -0.22083,-0.58521 -0.0221,-0.0331 -0.25396,-0.5852 -0.0221,-0.0442 -0.33125,-0.62938 -0.0221,-0.0331 -0.38646,-0.62937 -0.0221,-0.0442 -0.41958,-0.59625 -0.0331,-0.0331 -0.45271,-0.57417 -0.0221,-0.0221 -0.50792,-0.56313 -0.0331,-0.0331 -0.53,-0.53 -0.0221,-0.0221 -0.58521,-0.518955 -0.0331,-0.02208 -0.61833,-0.496874 -0.0331,-0.02208 -0.62937,-0.463749 -0.0221,-0.01104 -0.70667,-0.463749 -0.0221,-0.02209 -0.70667,-0.419581 -0.0221,-0.02208 -0.70667,-0.375417 -0.011,-0.01104 -0.76187,-0.386459 -0.0221,-0.01104 -0.795,-0.364376 -0.0221,-0.01104 -0.81708,-0.342291 -0.0221,-0.01104 -0.82813,-0.320209 h -0.011 l -0.83916,-0.298124 -0.011,-0.01104 -0.83917,-0.265002 -0.0221,-0.01104 -0.87229,-0.253958 -0.011,-0.01104 -0.9275,-0.25396 h -0.011 l -0.9275,-0.253958 h -0.011 l -0.88333,-0.220831 h -0.011 l -0.88333,-0.19875 v -0.01104 l -0.88334,-0.187709 h -0.011 l -0.87231,-0.18767 h -0.011 l -0.87229,-0.165626 h -0.011 l -0.86125,-0.154583 h -0.011 l -0.85021,-0.132501 h -0.011 l -0.9275,-0.1325 -0.011,-0.01104 -0.9275,-0.121457 h -0.011 l -0.96063,-0.110419 h -0.011 l -0.94958,-0.08833 h -0.011 l -0.88333,-0.07729 h -0.011 l -0.93854,-0.06625 h -0.0111 l -0.9827,-0.05521 h -0.011 l -0.97167,-0.03312 h -0.011 l -0.9275,-0.02208 -0.011,-0.01104 -0.88334,-0.01104 h -0.011 -0.9275 -0.011 l -0.91645,0.01104 h -0.011 l -0.86125,0.02208 h -0.011 l -0.81708,0.03312 h -0.011 l -0.77292,0.02208 v 0 l -0.83917,0.04417 v 0 l -0.87229,0.05521 v 0 l -0.883331,0.05521 h -0.01104 l -0.850209,0.06625 v 0 l -0.850228,0.06624 v 0 l -0.783958,0.06625 v 0.01104 l -0.750834,0.06625 v 0 l -0.795,0.07729 v 0 l -0.795,0.08833 v 0 l -0.761875,0.07729 h -0.02208 l -0.761875,0.110424 h -0.03312 l -0.717708,0.121457 -0.02208,0.01104 -0.673541,0.132498 h -0.02208 l -0.739791,0.176667 h -0.01105 l -0.750833,0.19875 h -0.02208 l -0.72875,0.209794 h -0.01104 l -0.673547,0.209794 v 0 L 88.50071,94.58281 v 0 l -0.629375,0.19875 v 0 l -0.585208,0.176667 v 0 l -0.53,0.165624 h 0.01104 l -0.53,0.165627 v 0 l -0.574165,0.165624 v 0 l -0.541042,0.154583 0.04417,-0.01104 -0.496875,0.110416 h 0.03312 l -0.3975,0.05521 v 0 l -0.309166,0.05521 h -0.01104 l -0.187708,0.03312 h -0.02209 l -0.09938,0.02209 -0.01104,0.01104 -0.05521,0.01104 c -0.364375,0.07729 -0.607291,0.441669 -0.518958,0.817084 0.07729,0.364376 0.441667,0.607292 0.817083,0.518959 l 0.04417,-0.01104 -0.01104,0.01104 0.110417,-0.02208 h -0.01104 l 0.187709,-0.03313 h -0.01104 l 0.309166,-0.04417 v 0 l 0.397501,-0.06625 0.04417,-0.01104 0.496875,-0.110416 0.03313,-0.01104 0.552083,-0.154583 v 0 l 0.585209,-0.176667 v 0 l 0.53,-0.165624 h 0.01104 l 0.518959,-0.165627 v 0 l 0.59625,-0.187708 v 0.01104 l 0.618333,-0.19875 v 0 l 0.6625,-0.209791 v 0 l 0.673542,-0.198749 h -0.01104 l 0.72875,-0.209791 -0.01104,0.01104 0.750834,-0.19875 h -0.01105 l 0.72875,-0.165626 h -0.02208 l 0.68458,-0.132498 h -0.02208 l 0.717708,-0.12146 h -0.02208 l 0.772916,-0.09937 h -0.02208 l 0.761875,-0.07729 v 0 l 0.795,-0.08833 h -0.01104 l 0.795,-0.07729 v 0 l 0.750834,-0.06625 h -0.01105 l 0.783958,-0.07729 v 0 l 0.839167,-0.06625 h -0.01104 l 0.861253,-0.05521 h -0.011 l 0.88333,-0.06625 h -0.011 l 0.87229,-0.04417 v 0 l 0.82813,-0.04417 h -0.011 l 0.77292,-0.03312 v 0 l 0.81708,-0.02208 v 0 l 0.86125,-0.02208 h -0.011 l 0.91646,-0.01104 v 0 h 0.9275 -0.011 l 0.89437,0.01104 h -0.011 l 0.9275,0.02208 h -0.011 l 0.97167,0.04417 h -0.0111 l 0.98271,0.05521 -0.011,-0.01104 0.93854,0.06625 v 0 l 0.87229,0.07729 h -0.011 l 0.96063,0.08833 h -0.011 l 0.96062,0.110416 h -0.011 l 0.9275,0.121459 h -0.011 l 0.9275,0.132498 v 0 l 0.85021,0.132501 h -0.011 l 0.85021,0.154583 h -0.011 l 0.88334,0.165626 h -0.011 l 0.87229,0.176665 h -0.011 l 0.88333,0.187709 h -0.011 l 0.88334,0.209793 -0.011,-0.01104 0.88333,0.220834 h -0.011 l 0.93854,0.242917 h -0.011 l 0.9275,0.253957 h -0.0221 l 0.88334,0.265002 -0.0221,-0.01104 0.83916,0.276042 -0.011,-0.01104 0.82813,0.298125 h -0.0221 l 0.82812,0.320209 -0.011,-0.01104 0.81708,0.342294 -0.0221,-0.01104 0.79501,0.364376 h -0.0221 l 0.75083,0.375417 -0.0221,-0.01104 0.70667,0.386458 -0.0331,-0.01104 0.71771,0.419584 -0.0221,-0.01104 0.69562,0.463749 -0.0221,-0.02208 0.62938,0.463752 -0.0221,-0.0221 0.61833,0.49687 -0.0221,-0.0221 0.58521,0.51896 -0.0331,-0.0221 0.53,0.53 -0.0221,-0.0331 0.50792,0.56312 -0.0221,-0.0331 0.45271,0.57417 -0.0221,-0.0331 0.41958,0.59625 -0.0221,-0.0331 0.38646,0.62938 -0.0221,-0.0331 0.33125,0.61833 -0.0221,-0.0331 0.265,0.58521 -0.0221,-0.0442 0.22083,0.58521 -0.011,-0.0331 0.18771,0.60729 -0.011,-0.0331 0.18771,0.6625 -0.011,-0.0331 0.15458,0.73979 v -0.0331 l 0.12146,0.78396 v -0.0331 l 0.0994,0.85021 v -0.0221 l 0.0773,0.88333 v -0.0331 l 0.0331,0.89438 v -0.0221 0.8502 -0.0221 l -0.0221,0.82813 v -0.0221 l -0.0442,0.80604 v -0.0221 l -0.0773,0.81708 v -0.0221 l -0.0994,0.795 v -0.0221 l -0.12145,0.76188 0.011,-0.0221 -0.14355,0.73979 v -0.0221 l -0.15458,0.69563 0.011,-0.0221 -0.17667,0.65146 0.011,-0.0331 -0.24291,0.73979 0.011,-0.0442 -0.265,0.69562 0.0221,-0.0552 -0.29813,0.59625 0.0221,-0.0442 -0.30917,0.50792 0.0331,-0.0442 -0.33125,0.46375 0.0331,-0.0442 -0.36437,0.43062 0.0331,-0.0331 -0.44167,0.44167 0.0442,-0.0331 -0.50792,0.43063 0.0442,-0.0331 -0.58521,0.44166 0.0331,-0.0221 -0.56312,0.36438 0.0331,-0.0221 -0.54104,0.33125 0.0331,-0.0221 -0.50792,0.265 0.0331,-0.0221 -0.53,0.24292 0.0442,-0.011 -0.59625,0.22083 0.0442,-0.011 -0.60729,0.17667 0.0442,-0.011 -0.62938,0.14354 h 0.0442 l -0.66249,0.0994 h 0.0442 l -0.69563,0.0662 h 0.0331 l -0.6625,0.0221 h 0.011 l -0.62938,0.0221 h 0.011 -0.65146 0.011 l -0.69562,-0.011 h 0.011 l -0.72875,-0.0221 h 0.011 l -0.78396,-0.0442 h 0.011 l -0.795,-0.0442 v 0 l -0.81708,-0.0442 v 0 l -0.795,-0.0442 v 0 l -0.76188,-0.0442 h -0.011 l -0.795,-0.0442 v 0 l -0.82812,-0.0331 h -0.011 l -0.82813,-0.011 h -0.011 -0.81708 -0.011 l -0.76187,0.0221 v 0 l -0.75084,0.0221 h -0.0111 l -0.80604,0.0221 h -0.011 l -0.795,0.0331 h -0.011 l -0.81708,0.0442 v 0 l -0.81708,0.0442 h -0.011 l -0.77292,0.0442 h -0.011 l -0.77292,0.0442 v 0 l -0.83916,0.0552 h -0.011 l -0.85021,0.0552 v 0 l -0.83917,0.0662 v 0 l -0.86125,0.0552 v 0 l -0.81708,0.0662 v 0 l -0.85021,0.0552 v 0 l -0.85021,0.0663 v 0 l -0.86125,0.0662 v 0 l -0.87229,0.0552 v 0 l -0.81708,0.0552 v 0 l -0.80605,0.0552 v 0 l -0.83916,0.0552 v 0 l -0.86125,0.0442 v 0 l -0.883335,0.0552 h 0.01104 l -0.894375,0.0331 v 0 l -0.872291,0.0442 h 0.01104 l -0.916467,0.0221 h 0.01104 l -0.949584,0.011 h 0.02208 l -0.905417,-0.011 h 0.02208 l -0.86125,-0.0442 h 0.01105 l -0.761875,-0.0552 h 0.02208 l -0.750833,-0.0773 h 0.02208 l -0.739791,-0.0994 h 0.02208 l -0.739792,-0.12146 h 0.02208 l -0.750834,-0.14354 h 0.02208 l -0.72875,-0.16562 0.01104,0.011 -0.684583,-0.18771 0.02208,0.011 -0.717708,-0.2098 h 0.02208 l -0.695625,-0.22083 h 0.02208 l -0.651459,-0.23187 0.02208,0.011 -0.684584,-0.27605 0.02208,0.011 -0.695625,-0.29812 h 0.02208 l -0.651458,-0.29813 h 0.02208 l -0.6625,-0.33124 0.02208,0.011 -0.673542,-0.37542 0.01104,0.011 -0.6625,-0.3975 0.02208,0.011 -0.695625,-0.44167 0.02208,0.011 -0.629375,-0.45271 0.03312,0.0221 -0.607291,-0.48583 0.02208,0.0221 -0.541042,-0.48583 0.02208,0.0221 -0.48579,-0.48581 0.02208,0.0221 -0.441666,-0.4748 0.02208,0.0221 -0.386459,-0.47479 0.02208,0.0331 -0.386458,-0.51896 0.02208,0.0331 -0.375417,-0.58521 0.02208,0.0331 -0.375417,-0.65146 0.02208,0.0331 -0.342291,-0.71771 0.02208,0.0442 -0.320209,-0.79499 0.02208,0.0552 -0.276041,-0.85021 0.02208,0.0442 -0.220834,-0.9275 0.01104,0.0442 -0.165625,-1.0048 0.01104,0.0552 -0.09937,-1.13729 v 0.0442 l -0.02208,-1.12625 v 0.0331 l 0.02208,-1.09312 v 0.0331 l 0.07729,-1.03792 v 0.0331 l 0.121459,-1.02688 v 0.0331 l 0.176666,-1.06 -0.01104,0.0331 0.231875,-1.03791 -0.01104,0.0331 0.253959,-0.94959 -0.01104,0.0331 0.298124,-0.9275 -0.01104,0.0331 0.353334,-0.94958 -0.01104,0.0331 0.408541,-0.97167 -0.01104,0.0331 0.441667,-0.90541 -0.02208,0.0331 0.441666,-0.806045 -0.02208,0.04417 0.496875,-0.761876 -0.04417,0.06625 0.441667,-0.552085 -0.05521,0.06625 0.386458,-0.375417 -0.05521,0.05521 0.342292,-0.265001 -0.04417,0.03313 0.298125,-0.19875 -0.03312,0.02209 0.298125,-0.165627 -0.03312,0.02208 0.320209,-0.154586 -0.03312,0.01104 0.342291,-0.143542 -0.02208,0.01104 0.320209,-0.121459 h -0.01104 l 0.320208,-0.110473 h -0.01104 l 0.309167,-0.09938 h -0.01104 l 0.276042,-0.08833 v 0 l 0.19875,-0.06625 -0.05521,0.02208 0.121458,-0.03312 -0.04417,0.01104 0.04417,-0.01104 h 0.03312 l 0.03312,-0.01104 h 0.03312 l 0.02208,-0.01104 h 0.02208 0.01104 l 0.01104,-0.01104 h 0.02208 0.01104 l 0.01104,-0.01104 c 0.364376,-0.110418 0.563126,-0.496877 0.452709,-0.86125 -0.110417,-0.364376 -0.496875,-0.563126 -0.86125,-0.45271 z"
       id="path699" />
    <path
       style="fill:none;fill-opacity:1;fill-rule:nonzero;stroke:#000000;stroke-width:0.965;stroke-dasharray:none;stroke-opacity:1"
       d="m 88.246752,95.333645 h 0.01104 v 0 l 0.05521,0.05521 c 0.19875,0.198749 0.496875,0.253957 0.750833,0.143541 0.265,-0.110415 0.430625,-0.364376 0.419584,-0.640416 0,-0.276042 -0.176667,-0.53 -0.430625,-0.629375 l -0.01104,-0.01104 c -0.242917,-0.08833 -0.518958,-0.04417 -0.706667,0.1325 -0.19875,0.165627 -0.276041,0.430626 -0.209791,0.684583 0.05521,0.253958 0.253958,0.441667 0.507916,0.496877 l 0.01104,0.01104 -0.04417,-0.02208 0.01104,0.01104 c 0.242917,0.07729 0.507917,0 0.695625,-0.187708 0.176667,-0.176668 0.231875,-0.45271 0.154583,-0.695627 -0.08833,-0.242917 -0.298125,-0.419582 -0.552083,-0.463748 h -0.01104 l 0.03313,0.01104 h -0.01104 c -0.364375,-0.07729 -0.72875,0.154582 -0.806042,0.53 -0.07729,0.375417 0.165625,0.739791 0.53,0.817083 h 0.02208 c 0.375417,0.07729 0.739792,-0.165626 0.817084,-0.53 0.07729,-0.375417 -0.165625,-0.739793 -0.541042,-0.817083 h -0.01104 l -0.07729,-0.01104 v 0 h -0.04417 l -0.01104,-0.01104 0.06625,0.01104 h -0.02209 l 0.09938,0.01104 -0.06625,-0.01104 0.05521,0.02208 -0.09938,-0.04417 0.04417,0.02209 -0.1325,-0.06625 0.04417,0.03313 -0.143542,-0.08833 0.06625,0.04417 -0.176667,-0.121457 0.06625,0.04416 -0.176666,-0.154583 0.04417,0.04417 -0.19875,-0.209791 0.02208,0.02208 -0.209792,-0.242917 0.01104,0.01104 -0.19875,-0.24292 0.01104,0.02209 -0.209791,-0.287083 0.02208,0.02208 -0.220833,-0.320207 0.01104,0.03313 -0.231875,-0.375417 0.02208,0.03312 -0.231875,-0.441666 0.01104,0.04417 -0.242916,-0.53 0.01104,0.04417 -0.209791,-0.541041 0.01104,0.03313 -0.19875,-0.596252 0.01104,0.04417 -0.165625,-0.629375 0.01104,0.04417 -0.121459,-0.60729 0.01104,0.03312 -0.08833,-0.618334 v 0.03313 l -0.04416,-0.607322 v 0.02208 l -0.03313,-0.574167 0.01104,0.02209 -0.01104,-0.563126 v 0.03313 l 0.01104,-0.507918 v 0.03313 l 0.04417,-0.452707 -0.01104,0.03312 0.06625,-0.40854 -0.01104,0.04417 0.08833,-0.375418 -0.01104,0.04417 0.09937,-0.353332 -0.01104,0.05521 0.121458,-0.342292 -0.01104,0.05521 0.165625,-0.364376 -0.03313,0.05521 0.209791,-0.364374 -0.02208,0.05521 0.242917,-0.375417 -0.03313,0.04417 0.298125,-0.364374 -0.03313,0.03312 0.33125,-0.353332 -0.03313,0.03313 0.342291,-0.32021 -0.03313,0.02208 0.375417,-0.309166 -0.03313,0.02208 0.375417,-0.287081 -0.02208,0.02208 0.386459,-0.264998 -0.02208,0.02208 0.408542,-0.253958 -0.02208,0.01104 0.441666,-0.231875 -0.04417,0.02208 0.46375,-0.220834 -0.04417,0.02208 0.46375,-0.176668 -0.05521,0.01104 0.46375,-0.132501 -0.05521,0.01104 0.452709,-0.09938 -0.05521,0.01104 0.441667,-0.04417 h -0.06625 0.430625 l -0.05521,-0.01104 0.408541,0.03312 -0.04417,-0.01104 0.353333,0.04417 h -0.04417 l 0.353334,0.06625 -0.05521,-0.02208 0.33125,0.08833 -0.05521,-0.01104 0.309167,0.110419 -0.05521,-0.02208 0.287084,0.12146 -0.05521,-0.02209 0.276042,0.154585 -0.04417,-0.02208 0.287084,0.187708 -0.04417,-0.02208 0.298125,0.231873 -0.03312,-0.03312 0.287083,0.253958 -0.03313,-0.02208 0.298125,0.298127 -0.02208,-0.02209 0.276042,0.298125 -0.02208,-0.02208 0.253959,0.298124 -0.02208,-0.02208 0.253959,0.331248 -0.03312,-0.04416 0.253958,0.386458 -0.02208,-0.04417 0.220833,0.375415 -0.02208,-0.04417 0.187708,0.419584 -0.01104,-0.04417 0.154584,0.386458 -0.02208,-0.04417 0.143542,0.430625 -0.01104,-0.04417 0.110417,0.463751 -0.01104,-0.04417 0.08833,0.485833 v -0.03313 l 0.05521,0.485834 v -0.03312 l 0.03312,0.463748 v -0.03312 l 0.01104,0.441666 v -0.01104 0.419585 -0.02208 0.408541 -0.01104 l -0.01104,0.386458 v -0.01104 l -0.02208,0.3975 v -0.01104 l -0.02208,0.331251 v 0.02208 0.264999 0.02209 0.220831 -0.01104 0.187709 -0.02208 0.110416 -0.01104 0.06625 -0.01104 0.03312 c -0.01104,0.05521 0,0.110416 0.01104,0.165624 v 0.01104 l 0.01104,0.07729 h 0.01104 l -0.01104,-0.01104 0.01104,0.02208 -0.03312,-0.132501 0.01104,0.01104 v -0.143542 l -0.01104,0.03312 0.01104,-0.02208 -0.01104,0.05521 v -0.03312 l -0.01104,0.07729 v -0.02208 l -0.01104,0.08833 v 0 l -0.03312,0.09938 v 0.01104 l -0.02208,0.110416 v -0.01104 l -0.03312,0.110416 0.01104,-0.02208 -0.03312,0.110419 v 0.01104 l -0.02208,0.08833 -0.01104,0.01104 -0.01104,0.05521 v 0.02209 l -0.01104,0.05521 -0.01104,0.02208 v 0.03313 l -0.01104,0.02208 v 0.02209 0.01104 0.01104 0.02208 0.01104 l -0.01104,0.04417 v 0.01104 0.06625 l 0.01104,0.01104 v 0.02208 0 -0.01104 0 l -0.01104,-0.02208 h 0.01104 l -0.01104,-0.02208 v 0 -0.02208 0.01104 -0.01104 0.01104 0.03312 0 c 0,0.08833 0.02208,0.176667 0.05521,0.265001 v 0 l -0.05521,-0.265001 v 0.01104 -0.02209 0.03313 0 0.02208 0.02209 0.01104 0.01104 0.01104 0.01104 0.01104 0.01104 l 0.01104,0.01104 -0.01104,-0.03312 v 0.01104 c 0.01104,0.253957 0.154583,0.485833 0.375417,0.60729 0.231875,0.110418 0.507916,0.08833 0.717708,-0.05521 0.209792,-0.154583 0.320208,-0.3975 0.287083,-0.651457 v -0.01104 0.04417 0 c -0.0221,-0.265015 -0.17668,-0.485847 -0.419597,-0.585224 -0.231875,-0.09938 -0.507917,-0.06625 -0.706667,0.09938 -0.19875,0.154583 -0.287083,0.419582 -0.231875,0.67354 v 0 l -0.01104,-0.03312 v 0.01104 0 l 0.01104,0.02208 v 0.01104 l 0.01104,0.07729 0.01104,0.03313 0.01104,0.09937 0.02208,0.06625 0.04417,0.12146 0.01104,0.05521 0.05521,0.1325 v 0 l 0.04417,0.110416 v -0.02208 l 0.03312,0.110416 c 0.1325,0.353333 0.53,0.53 0.883333,0.40854 0.364375,-0.132498 0.541042,-0.53 0.408542,-0.883332 l -0.03313,-0.110416 -0.01104,-0.03313 -0.04417,-0.09938 v 0 l -0.05521,-0.1325 0.02208,0.04417 -0.04417,-0.121457 0.01104,0.06625 -0.02208,-0.110415 0.01104,0.03312 -0.01104,-0.07729 v 0.01104 -0.02208 0 l -0.01104,-0.01104 v -0.03312 0 c -0.07729,-0.364377 -0.408542,-0.596252 -0.772917,-0.552085 -0.353333,0.05521 -0.618333,0.375417 -0.585208,0.739793 v 0 0.04417 0.01104 c 0.05521,0.353333 0.375416,0.618334 0.72875,0.585208 0.364375,-0.02208 0.640416,-0.320209 0.640416,-0.684583 v -0.01104 -0.03312 -0.01104 0.01104 -0.01104 0.01104 -0.01104 0.01104 -0.01104 0.02208 -0.02208 0.01104 -0.03313 -0.03313 -0.01104 c 0,-0.08833 -0.02208,-0.176665 -0.05521,-0.264999 v 0 l 0.05521,0.264999 v 0 0.03313 -0.01104 0 -0.01104 -0.02208 -0.01104 -0.02208 -0.01104 -0.02208 -0.01104 -0.01104 -0.01104 0.02208 0 0.06625 -0.01104 0.04417 -0.01104 0.02209 -0.01104 0.01104 -0.02209 0.02209 -0.03313 0.03313 l 0.01104,-0.05521 -0.01104,0.02208 0.01104,-0.04417 v 0.02208 l 0.02208,-0.08833 v 0 l 0.03312,-0.110419 v -0.02208 l 0.03313,-0.121459 v -0.01104 l 0.03312,-0.110415 -0.01104,0.01104 0.03313,-0.09937 v -0.01104 l 0.02208,-0.08833 v -0.02208 l 0.02208,-0.06625 v -0.03312 l 0.01104,-0.04417 v -0.02208 l 0.01104,-0.04417 c 0,-0.04417 0,-0.09937 0,-0.143541 v -0.02208 l -0.03313,-0.132501 v -0.02208 -0.01104 l -0.01104,-0.01104 0.02208,0.07729 v 0 l 0.01104,0.165624 v -0.02208 -0.01104 l 0.01104,-0.07729 v -0.01104 -0.110419 -0.02208 -0.176668 0 -0.220832 0.02208 -0.264999 0.02208 l 0.02213,-0.331312 v -0.01104 l 0.01104,-0.386459 v -0.01104 l 0.01104,-0.386458 v -0.01104 l 0.01104,-0.408543 v -0.01104 -0.419584 -0.02208 l -0.02208,-0.441666 v -0.02209 l -0.03312,-0.463748 v -0.03313 l -0.06625,-0.485833 v -0.04417 l -0.08833,-0.485833 -0.01104,-0.04417 -0.110417,-0.463751 -0.01104,-0.04416 -0.143541,-0.430625 -0.01104,-0.04417 -0.154583,-0.386458 -0.02208,-0.04417 -0.19875,-0.408543 -0.02208,-0.04417 -0.220833,-0.386458 -0.02208,-0.04416 -0.253958,-0.375417 -0.02208,-0.03313 -0.253959,-0.33125 -0.02208,-0.02208 -0.242917,-0.298125 -0.02208,-0.02208 -0.265,-0.298124 -0.02208,-0.02208 -0.298125,-0.298128 -0.03313,-0.03312 -0.287084,-0.25396 -0.03312,-0.02208 -0.287083,-0.231876 -0.04417,-0.03313 -0.287083,-0.187706 -0.04417,-0.03312 -0.276041,-0.154583 -0.05521,-0.03313 -0.287083,-0.132501 -0.05521,-0.02208 -0.309167,-0.110416 -0.05521,-0.01104 -0.33125,-0.08833 -0.04417,-0.01104 -0.353333,-0.06625 -0.04417,-0.01104 -0.353333,-0.03313 -0.04417,-0.01104 -0.3975,-0.02209 h -0.04417 -0.430625 l -0.07729,0.01104 -0.441667,0.04416 -0.06625,0.01104 -0.46375,0.09937 -0.05521,0.01104 -0.46375,0.143542 -0.04417,0.01104 -0.46375,0.187709 -0.04417,0.01104 -0.452708,0.209793 -0.04417,0.02208 -0.441666,0.242916 -0.02208,0.01104 -0.419583,0.25396 -0.02208,0.02208 -0.3975,0.264998 -0.03313,0.02209 -0.375417,0.287084 -0.03313,0.02208 -0.364375,0.309168 -0.03313,0.02208 -0.342292,0.331251 -0.03313,0.03312 -0.320208,0.353333 -0.03313,0.03313 -0.298125,0.364373 -0.03313,0.04417 -0.242917,0.364376 -0.03313,0.04417 -0.209791,0.364374 -0.02208,0.04417 -0.165625,0.353332 -0.02208,0.05521 -0.1325,0.331248 -0.01104,0.05521 -0.110416,0.353333 -0.01104,0.04417 -0.07729,0.375414 -0.01104,0.04417 -0.06625,0.408543 v 0.04417 l -0.04415,0.463756 v 0.04417 l -0.02208,0.507918 v 0.03312 l 0.01104,0.563126 v 0.02208 l 0.02208,0.574165 v 0.02209 l 0.05521,0.618333 0.01104,0.03312 0.07729,0.618334 0.01104,0.04417 0.121458,0.607293 0.01104,0.04417 0.154583,0.618331 0.02208,0.04417 0.187708,0.596252 0.02208,0.04416 0.220834,0.541044 0.01104,0.04417 0.253959,0.518956 0.01104,0.03313 0.242917,0.441667 0.01104,0.02208 0.231875,0.375415 0.02208,0.03313 0.220833,0.320209 0.01104,0.02208 0.209792,0.276043 0.02208,0.02208 0.19875,0.25396 0.01104,0.01104 0.209791,0.242917 0.02208,0.03312 0.19875,0.209793 0.04417,0.04417 0.176667,0.154583 0.06625,0.04417 0.165625,0.121457 0.06625,0.03313 0.143542,0.08833 0.05521,0.02208 0.1325,0.06625 0.04417,0.01104 0.09938,0.04417 0.05521,0.01104 0.06625,0.02208 0.09937,0.01104 0.02208,0.01104 h 0.05521 0.01104 -0.03313 v 0 l -0.07729,-0.01104 h 0.01104 c 0.375417,0.07729 0.739792,-0.165626 0.817084,-0.53 0.07729,-0.375417 -0.165625,-0.739793 -0.541042,-0.817083 h -0.02208 c -0.364375,-0.07729 -0.72875,0.154582 -0.806042,0.53 -0.07729,0.375417 0.165625,0.739791 0.53,0.817083 h 0.01104 l 0.04417,0.01104 h 0.01106 c 0.353333,0.04417 0.684583,-0.176667 0.772917,-0.53 0.07729,-0.353332 -0.1325,-0.706667 -0.474792,-0.817083 h -0.01104 l -0.04417,-0.01104 h -0.01104 c -0.353333,-0.07729 -0.706667,0.121457 -0.817083,0.463748 -0.09938,0.353335 0.07729,0.717709 0.408541,0.850209 h 0.01104 c 0.309167,0.12146 0.651458,0.01104 0.828125,-0.264998 0.176667,-0.276043 0.143542,-0.629375 -0.08833,-0.861251 l -0.05521,-0.05521 v 0 -0.01104 c -0.276041,-0.264999 -0.706666,-0.264999 -0.982708,0 -0.265,0.276042 -0.265,0.706667 0,0.982709 z"
       id="path701" />
    <path
       style="fill:none;fill-opacity:1;fill-rule:nonzero;stroke:#000000;stroke-width:0.965;stroke-dasharray:none;stroke-opacity:1"
       d="m 112.71508,94.406145 h -0.011 c -0.17666,-0.342294 -0.5852,-0.463751 -0.92749,-0.287083 -0.33126,0.176665 -0.46376,0.585208 -0.28709,0.927499 v 0 0.01104 h 0.011 c 0.17667,0.331251 0.58521,0.463751 0.91646,0.287084 0.34229,-0.165624 0.47479,-0.585208 0.29812,-0.916459 v -0.01104 l -0.011,-0.01104 v 0 h 0.011 -0.011 v -0.01104 l -0.0221,-0.04417 v 0 l -0.0552,-0.110417 v 0 l -0.0773,-0.154583 v 0.01104 l -0.0883,-0.165624 h 0.011 l -0.0883,-0.165626 0.011,0.01104 -0.11042,-0.209793 0.011,0.01104 -0.0883,-0.220832 v 0.01104 l -0.0994,-0.220832 0.011,0.01104 -0.0994,-0.220834 h 0.011 l -0.0994,-0.220832 h 0.011 l -0.0994,-0.220834 v 0 l -0.0994,-0.264999 v 0.01104 l -0.0994,-0.287084 v 0.01104 l -0.0994,-0.298124 0.011,0.02208 -0.12145,-0.353333 0.011,0.02209 -0.11042,-0.397502 v 0.02209 l -0.12146,-0.485833 v 0.02208 l -0.12145,-0.507915 0.011,0.02208 -0.0994,-0.496875 v 0.01104 l -0.0773,-0.430625 v 0.01104 l -0.0663,-0.419581 v 0.01104 l -0.0552,-0.463751 v 0.03313 l -0.0442,-0.485834 v 0.03313 l -0.0221,-0.518959 v 0.03313 -0.496877 0.03313 l 0.0221,-0.507915 v 0.03312 l 0.0442,-0.463749 -0.011,0.03312 0.0773,-0.463748 -0.011,0.03312 0.0994,-0.463748 -0.011,0.03313 0.12145,-0.45271 -0.011,0.04417 0.15459,-0.463752 -0.0221,0.04417 0.1877,-0.441666 -0.0221,0.04417 0.2098,-0.430625 -0.0221,0.04417 0.25396,-0.408541 -0.0331,0.04417 0.25395,-0.353335 -0.0331,0.03313 0.24292,-0.287084 -0.0221,0.03313 0.265,-0.287084 -0.0221,0.02208 0.27604,-0.253958 -0.0331,0.02208 0.32021,-0.264999 -0.0331,0.03313 0.34229,-0.25396 -0.0442,0.02209 0.38646,-0.242917 -0.0442,0.02208 0.38646,-0.209791 -0.0331,0.01104 0.36437,-0.176665 -0.0331,0.02208 0.37542,-0.165624 -0.0331,0.02208 0.38646,-0.143542 -0.0331,0.01104 0.41958,-0.132498 h -0.0221 l 0.43063,-0.110418 h -0.0221 l 0.43062,-0.09937 -0.0221,0.01104 0.43063,-0.08833 -0.0331,0.01104 0.44166,-0.06625 -0.0442,0.01104 0.40854,-0.03313 h -0.0552 l 0.38646,0.01104 -0.0552,-0.01104 0.38646,0.04417 -0.0662,-0.01104 0.37542,0.07729 -0.0552,-0.02208 0.37541,0.110416 -0.0552,-0.02208 0.3975,0.165624 -0.0442,-0.02208 0.37542,0.176665 -0.0442,-0.02208 0.3975,0.231876 -0.0552,-0.03313 0.37542,0.264998 -0.0442,-0.03312 0.35333,0.298125 -0.0442,-0.04417 0.30917,0.309166 -0.0442,-0.04417 0.27604,0.320209 -0.0442,-0.04417 0.24292,0.342292 -0.0331,-0.04417 0.19875,0.342291 -0.0331,-0.05521 0.17666,0.397502 -0.0221,-0.06625 0.14354,0.45271 -0.011,-0.06625 0.11042,0.485833 -0.011,-0.04417 0.0883,0.53 -0.011,-0.04417 0.0552,0.530001 v -0.03312 l 0.0221,0.496875 v -0.03313 l -0.011,0.496874 v -0.04416 l -0.0331,0.485833 v -0.04417 l -0.0662,0.485833 0.011,-0.04417 -0.0994,0.452708 0.011,-0.05521 -0.15458,0.485833 0.0221,-0.04417 -0.17667,0.441667 0.0221,-0.04417 -0.20979,0.441669 0.011,-0.02208 -0.20979,0.408543 0.011,-0.02209 -0.20979,0.375417 h 0.011 l -0.18771,0.331251 v 0 l -0.15458,0.298124 h -0.011 l -0.1325,0.253958 v 0.01104 l -0.0994,0.176668 v 0.01104 l -0.0662,0.143542 -0.0221,0.04417 -0.0442,0.09938 -0.011,0.03313 -0.0331,0.09938 v 0 l -0.0221,0.06625 v 0 l -0.011,0.03313 v -0.01104 0.01104 -0.01104 0.01104 l -0.011,0.02208 v 0.01104 l -0.0221,0.09938 v 0.01104 c -0.0221,0.07729 -0.011,0.154582 0,0.231875 v 0.01104 c 0.0552,0.287084 0.30916,0.507916 0.60729,0.541041 v 0 c 0.14354,0.02208 0.28708,-0.01104 0.41958,-0.08833 v 0 l 0.11042,-0.08833 h 0.011 l 0.011,-0.01104 v 0 l -0.12146,0.08833 v 0 c 0.265,-0.154582 0.3975,-0.474792 0.30917,-0.772916 -0.0773,-0.298125 -0.35334,-0.507916 -0.6625,-0.507916 -0.30917,0 -0.57417,0.209791 -0.66251,0.507916 v 0.01104 -0.01104 l -0.011,0.04417 -0.0221,0.06625 v 0.01104 0.03312 l -0.011,0.02208 v 0.01104 0.01104 0.01104 0 0.01104 0.01104 -0.01104 l -0.011,0.03312 0.011,-0.03312 -0.011,0.04417 0.0331,-0.110418 -0.0221,0.06625 0.0221,-0.07729 -0.0331,0.07729 v 0 l -0.0442,0.09938 v 0.01104 l -0.0662,0.143542 v 0.01104 l -0.0883,0.176668 v 0 l -0.0773,0.198749 v 0 l -0.0883,0.19875 v 0 l -0.0883,0.187709 v 0 l -0.0773,0.176667 v 0 l -0.0552,0.132498 v 0 l -0.0331,0.08833 v 0 l -0.0331,0.05521 v 0 l -0.0221,0.06625 h -0.011 v 0.03312 h -0.011 l -0.011,0.03313 v 0 l -0.011,0.02208 v 0 l -0.011,0.02208 h 0.011 l -0.0221,0.03312 0.011,-0.01104 -0.0221,0.02208 0.011,-0.01104 -0.011,0.02208 0.011,-0.01104 -0.011,0.01104 -0.011,0.02208 v 0 l -0.0331,0.08833 v 0 l -0.0331,0.110419 v 0.01104 0.05521 0 l 0.0662,-0.253958 -0.0331,0.05521 0.0552,-0.07729 -0.0331,0.04417 0.0221,-0.04417 -0.0442,0.06625 0.0221,-0.03313 -0.0773,0.08833 0.011,-0.01104 -0.0552,0.07729 h -0.011 l -0.0552,0.06625 0.011,-0.01104 -0.0442,0.04417 0.0331,-0.03312 -0.0442,0.04416 0.011,-0.01104 -0.0442,0.03313 v 0 l -0.0442,0.03313 -0.011,0.01104 -0.0221,0.02208 -0.0221,0.02208 -0.0442,0.03312 -0.0331,0.04417 -0.0442,0.04417 -0.0331,0.05521 -0.0442,0.05521 -0.0442,0.06625 -0.0221,0.04417 -0.0221,0.06625 -0.0221,0.04417 -0.0221,0.04417 -0.0221,0.06625 -0.011,0.03313 -0.0221,0.09938 -0.011,0.01104 -0.0221,0.07729 0.011,-0.01104 -0.0221,0.05521 0.011,-0.04417 -0.011,0.03312 0.0221,-0.05521 v 0.01104 l 0.0221,-0.04417 v 0 l 0.0221,-0.04417 v 0.01104 l 0.0552,-0.07729 -0.011,0.01104 0.15459,-0.132501 -0.011,0.01104 0.36437,-0.110416 v 0 l 0.47479,0.176668 v 0 c -0.25395,-0.231876 -0.62937,-0.242917 -0.90541,-0.03313 l -0.0773,0.06625 -0.0883,0.08833 -0.0883,0.09937 0.0331,-0.03313 -0.0773,0.07729 -0.0331,0.03313 -0.0662,0.06625 c -0.25396,0.276043 -0.22083,0.717709 0.0552,0.971667 0.28708,0.253957 0.71771,0.231875 0.97166,-0.05521 l 0.0662,-0.06625 -0.0331,0.03312 0.0883,-0.08833 0.0331,-0.03313 0.0883,-0.110416 -0.0883,0.08833 0.0773,-0.06625 -0.89437,-0.03313 0.011,0.01104 c 0.12146,0.121457 0.29812,0.187706 0.47479,0.176665 v 0 c 0.1325,0 0.25396,-0.03312 0.36438,-0.110416 v 0 c 0.0552,-0.03313 0.11041,-0.07729 0.15458,-0.12146 v -0.01104 l 0.0552,-0.06625 v 0 l 0.0221,-0.04417 v 0 l 0.0221,-0.04417 0.011,-0.01104 0.0221,-0.05521 0.011,-0.02209 0.011,-0.04417 0.0221,-0.05521 v -0.01104 l 0.0221,-0.08833 v 0.01104 l 0.0331,-0.09938 -0.011,0.02209 0.0221,-0.06625 -0.011,0.03313 0.0221,-0.05521 -0.0331,0.06625 0.0221,-0.04417 -0.0442,0.06625 0.0442,-0.04417 -0.0442,0.05521 0.0331,-0.04417 -0.0331,0.04417 0.0331,-0.04417 -0.0221,0.02208 0.0221,-0.02208 -0.011,0.02208 0.0331,-0.03312 v 0 l 0.0442,-0.03313 0.011,-0.02208 0.0552,-0.04417 0.0442,-0.04417 0.0552,-0.05521 0.011,-0.01104 0.0552,-0.06625 v 0 l 0.0663,-0.06625 0.011,-0.01104 0.0773,-0.08833 0.0221,-0.03313 0.0442,-0.06625 0.0331,-0.04417 0.0331,-0.04417 0.0442,-0.08833 0.0331,-0.05521 c 0.0331,-0.07729 0.0552,-0.165626 0.0552,-0.242916 v -0.01104 0.05521 0 l -0.0221,0.110416 v -0.01104 l -0.0331,0.08833 v 0 l -0.011,0.02208 v -0.01104 l 0.011,-0.01104 0.011,-0.02208 v -0.01104 l 0.011,-0.02209 0.011,-0.01104 0.011,-0.03312 0.011,-0.01104 0.011,-0.02208 v -0.01104 l 0.011,-0.02209 v 0 l 0.011,-0.03313 v 0 l 0.011,-0.02208 v 0 l 0.0331,-0.06625 v 0 l 0.0221,-0.05521 v 0 l 0.0331,-0.08833 v 0 l 0.0552,-0.132501 v 0 l 0.0883,-0.176667 v 0 l 0.0773,-0.187709 v 0 l 0.0883,-0.198749 v 0 l 0.0773,-0.19875 v 0.01104 l 0.0883,-0.187706 v 0 l 0.0663,-0.143542 v 0 l 0.0442,-0.110418 v 0.01104 l 0.0331,-0.07729 0.0221,-0.07729 0.0221,-0.05521 0.0221,-0.09937 0.011,-0.04417 v -0.03312 l 0.011,-0.02208 v -0.01104 -0.01104 0.01104 -0.01104 0.01104 -0.01104 0.01104 -0.01104 l -0.011,0.02208 0.011,-0.01104 -0.0221,0.06625 0.011,-0.04417 0.011,-0.01104 v -0.01104 c 0.0773,-0.276042 -0.0221,-0.563126 -0.24292,-0.739791 -0.22083,-0.165626 -0.53,-0.187708 -0.77291,-0.04417 v 0 c -0.0442,0.03312 -0.0883,0.06625 -0.12146,0.09937 v 0 l 0.011,-0.01104 h -0.011 l 0.12146,-0.08833 v 0 l 0.41958,-0.08833 v 0 l 0.59625,0.552082 v 0 l 0.011,0.242916 v -0.01104 l -0.0221,0.09938 v -0.01104 l -0.011,0.02208 h 0.011 v 0 -0.01104 0 l 0.011,-0.03313 v 0 l 0.0221,-0.06625 v 0.01104 l 0.0331,-0.08833 -0.011,0.02208 0.0331,-0.09937 -0.0221,0.04417 0.0773,-0.143541 -0.011,0.01104 0.0994,-0.176668 h -0.011 l 0.1325,-0.242917 v 0 l 0.15458,-0.287083 v 0 l 0.18771,-0.331248 v 0 l 0.19875,-0.375417 0.011,-0.01104 0.20979,-0.408543 0.011,-0.02208 0.20979,-0.441669 0.011,-0.03312 0.17667,-0.441666 0.0221,-0.05521 0.14354,-0.485836 0.0221,-0.05521 0.0994,-0.463748 0.011,-0.05521 0.0663,-0.485833 v -0.04417 l 0.0331,-0.485833 0.011,-0.04417 v -0.496877 -0.03312 l -0.0221,-0.496877 v -0.04416 l -0.0552,-0.530001 v -0.04417 l -0.0883,-0.51896 -0.011,-0.05521 -0.11042,-0.485834 -0.011,-0.05521 -0.14354,-0.441669 -0.0331,-0.06625 -0.17666,-0.397499 -0.0221,-0.06625 -0.19875,-0.353335 -0.0331,-0.05521 -0.24292,-0.342292 -0.0331,-0.04417 -0.27604,-0.33125 -0.0331,-0.04417 -0.32021,-0.309165 -0.0442,-0.04417 -0.35333,-0.298125 -0.0442,-0.03313 -0.37542,-0.264998 -0.0442,-0.03313 -0.3975,-0.220835 -0.0442,-0.03312 -0.38646,-0.187709 -0.0552,-0.02208 -0.3975,-0.154583 -0.0663,-0.02208 -0.37541,-0.110419 -0.0552,-0.01104 -0.38646,-0.06625 -0.0552,-0.01104 -0.38646,-0.04417 h -0.0662 -0.38646 -0.0552 l -0.40854,0.02208 -0.0552,0.01104 -0.43063,0.05521 -0.0331,0.01104 -0.43062,0.07729 -0.0221,0.01104 -0.44167,0.09938 h -0.0221 l -0.43062,0.121457 -0.0331,0.01104 -0.41958,0.1325 -0.0331,0.01104 -0.38646,0.132501 -0.0331,0.02208 -0.36438,0.154583 -0.0331,0.01104 -0.36437,0.176667 -0.0442,0.02208 -0.37542,0.209791 -0.0331,0.02208 -0.38646,0.242917 -0.0331,0.02208 -0.34229,0.25396 -0.0331,0.02208 -0.32021,0.265001 -0.0331,0.03312 -0.27604,0.253957 -0.0221,0.03313 -0.27604,0.287084 -0.0331,0.03313 -0.24292,0.287083 -0.0331,0.04417 -0.25396,0.353332 -0.0221,0.04417 -0.25396,0.419585 -0.0221,0.04416 -0.22083,0.430625 -0.011,0.04417 -0.18771,0.441666 -0.011,0.04417 -0.15458,0.463751 -0.0221,0.04417 -0.12146,0.452707 v 0.04417 l -0.0994,0.463751 -0.011,0.03312 -0.0663,0.474792 v 0.03313 l -0.0552,0.463748 v 0.03313 l -0.0221,0.507918 v 0.03312 0.507918 0.03313 l 0.0221,0.507915 0.011,0.03313 0.0442,0.485833 v 0.02208 l 0.0663,0.463751 v 0.01104 l 0.0662,0.430625 v 0.01104 l 0.0773,0.430625 v 0.02208 l 0.11042,0.496874 v 0.01104 l 0.12146,0.507918 v 0.02208 l 0.12145,0.485833 0.011,0.01104 0.11042,0.397502 0.011,0.01104 0.11042,0.342291 v 0.02208 l 0.0994,0.298125 0.011,0.01104 0.0994,0.287083 0.011,0.01104 0.0994,0.264999 v 0.01104 l 0.0994,0.220831 v 0.01104 l 0.0883,0.220835 v 0.01104 l 0.0883,0.209791 0.011,0.01104 0.0883,0.209791 v 0.01104 l 0.0883,0.209794 0.011,0.02208 0.0994,0.220834 0.011,0.01104 0.0883,0.176668 v 0.01104 l 0.0883,0.154583 v 0.01104 l 0.0773,0.154583 v 0 l 0.0552,0.110418 h 0.011 l 0.0221,0.05521 v 0 0 l 0.011,0.01104 v 0 l -0.011,-0.01104 v 0 c 0.11041,0.220832 0.33125,0.364374 0.58521,0.375418 0.24291,0.01104 0.47479,-0.110419 0.60729,-0.32021 0.1325,-0.209791 0.14354,-0.463751 0.0331,-0.684583 v -0.01104 0.01104 0 c -0.11042,-0.220834 -0.34229,-0.364376 -0.58521,-0.375417 -0.24292,-0.01104 -0.47479,0.110416 -0.60729,0.320209 -0.1325,0.209791 -0.14354,0.47479 -0.0221,0.695624 v 0 c 0.17667,0.331251 0.59625,0.463751 0.9275,0.276043 0.34229,-0.176668 0.46375,-0.596252 0.28708,-0.9275 z"
       id="path703" />
    <path
       style="fill:none;fill-opacity:1;fill-rule:nonzero;stroke:#000000;stroke-width:1.065;stroke-dasharray:none;stroke-opacity:1"
       d="m 102.34696,78.141768 h -0.011 0.011 -0.0221 0.0221 -0.011 0.011 -0.011 0.011 -0.011 0.011 -0.011 l 0.0221,0.01104 -0.011,-0.01104 0.011,0.01104 -0.011,-0.01104 0.011,0.01104 -0.011,-0.01104 0.011,0.01104 -0.011,-0.01104 0.011,0.01104 v 0 0 h -0.011 0.0221 l -0.0331,-0.01104 h 0.011 -0.0221 l -0.0331,-0.01104 -0.0442,-0.02208 -0.0994,-0.02208 -0.11042,-0.02208 h -0.0442 l -0.17666,-0.02208 h 0.011 l -0.19875,-0.02208 h 0.0221 l -0.22082,-0.0221 h 0.0331 l -0.23187,-0.04417 0.0442,0.01104 -0.25396,-0.05521 0.0552,0.01104 -0.23188,-0.07729 0.0552,0.02208 -0.22083,-0.09938 0.0552,0.03313 -0.24292,-0.132501 0.0552,0.03313 -0.265,-0.165624 0.0442,0.03312 -0.27604,-0.20979 0.0221,0.02208 -0.309166,-0.264999 0.02208,0.02208 -0.242917,-0.220832 0.01104,0.01104 -0.253959,-0.242916 0.01104,0.01104 -0.265,-0.264999 0.01104,0.01104 -0.253959,-0.264998 v 0 l -0.220837,-0.220819 h -0.01104 l -0.18771,-0.187709 v -0.01104 l -0.154583,-0.143541 v 0 l -0.121459,-0.12146 v 0 l -0.09938,-0.08833 -0.01104,-0.01104 -0.08833,-0.08833 h -0.01104 l -0.110417,-0.09938 -0.01104,-0.01104 -0.08833,-0.07729 h -0.01104 l -0.06625,-0.05521 v -0.01104 l -0.04417,-0.03312 -0.01104,-0.01104 -0.03313,-0.02208 v 0 l -0.02208,-0.02209 v 0 0 0 0 l 0.01104,0.01104 -0.01104,-0.01104 0.01104,0.01104 v 0 l 0.01104,0.01104 -0.01104,-0.01104 0.02208,0.02208 -0.01104,-0.01104 0.02208,0.02208 -0.01104,-0.01104 0.02208,0.02208 -0.01104,-0.01104 0.01104,0.02209 v -0.01104 l 0.01104,0.01104 v 0 0 l -0.01104,-0.01104 -0.08833,-0.09937 -0.05521,-0.05521 -0.05521,-0.04417 -0.110417,-0.08833 h -0.01104 l -0.143542,-0.09937 v -0.01104 l -0.165622,-0.12148 h -0.01104 l -0.18771,-0.1325 v 0 l -0.231875,-0.165624 h -0.01104 l -0.253958,-0.176668 h -0.01104 l -0.276045,-0.187708 h -0.01104 l -0.309167,-0.19875 v 0 l -0.33125,-0.220835 v 0 l -0.353335,-0.220831 v 0 l -0.364375,-0.242917 h 0.01104 l -0.386459,-0.265001 0.01104,0.01104 -0.419583,-0.309168 0.01104,0.02209 -0.441666,-0.353335 0.02208,0.02208 -0.452708,-0.386458 0.02208,0.02208 -0.441667,-0.408542 0.01104,0.02208 -0.408542,-0.419584 0.02208,0.02208 -0.386459,-0.408542 0.02208,0.02208 -0.408542,-0.474791 0.02208,0.03313 -0.386458,-0.507917 0.02208,0.03313 -0.386458,-0.552083 0.02208,0.02208 -0.3975,-0.618333 0.02208,0.03313 -0.375417,-0.673542 0.02208,0.03312 -0.353333,-0.72875 0.02208,0.04417 -0.309166,-0.72875 0.02208,0.03312 -0.265,-0.739792 0.01104,0.03312 -0.220834,-0.761875 0.01104,0.03313 -0.187708,-0.772917 v 0.03313 L 88.500663,63.47843 v 0.03312 l -0.121458,-0.872292 0.01104,0.03312 -0.08833,-0.938542 v 0.03312 l -0.04417,-0.960625 v 0.02208 l 0.01104,-0.982709 v 0.02208 l 0.03313,-0.960625 v 0.02208 l 0.05521,-0.883333 v 0.03313 l 0.09938,-0.795 -0.01104,0.03313 0.1325,-0.772917 -0.01104,0.03313 0.176667,-0.72875 -0.01104,0.04417 0.19875,-0.684584 -0.01104,0.04417 0.253958,-0.673541 -0.01104,0.04417 0.276042,-0.59625 -0.02208,0.03312 0.309166,-0.563126 -0.02208,0.03312 0.342292,-0.541041 -0.02208,0.03312 0.364375,-0.496875 -0.03313,0.03312 0.386459,-0.452709 -0.03313,0.03312 0.452708,-0.474791 -0.03312,0.03312 0.507917,-0.46375 -0.03312,0.03313 0.552083,-0.441667 -0.03313,0.02208 0.585208,-0.408541 -0.03313,0.02208 0.651459,-0.3975 -0.03312,0.01104 0.695625,-0.375417 -0.03312,0.02208 0.706666,-0.33125 -0.03312,0.01104 0.761875,-0.320208 -0.02208,0.01104 0.795,-0.276042 h -0.02208 l 0.783967,-0.231862 h -0.02208 l 0.828125,-0.209791 h -0.03312 l 0.783958,-0.165626 h -0.02208 l 0.772916,-0.143541 h -0.02208 l 0.828109,-0.121458 h -0.0221 l 0.81709,-0.08833 h -0.0221 l 0.7177,-0.06625 -0.0331,0.01104 0.76188,-0.03312 h -0.0331 l 0.68458,0.01104 h -0.0331 l 0.65146,0.04417 -0.0442,-0.01104 0.64042,0.08833 -0.0442,-0.01104 0.64042,0.121458 -0.0442,-0.01104 0.65146,0.165625 -0.0442,-0.01104 0.61834,0.19875 -0.0331,-0.01104 0.60729,0.231875 -0.0442,-0.02208 0.60729,0.287083 -0.0331,-0.02208 0.57417,0.309167 -0.0331,-0.02208 0.54104,0.33125 -0.0331,-0.02208 0.51896,0.364375 -0.0331,-0.02208 0.48583,0.375417 -0.011,-0.01104 0.46375,0.375417 v 0 l 0.51896,0.430625 -0.011,-0.01104 0.53,0.441666 h -0.011 l 0.49687,0.430625 -0.011,-0.01104 0.47479,0.430625 -0.011,-0.01104 0.46375,0.441667 -0.011,-0.01104 0.43063,0.441666 -0.011,-0.02208 0.38646,0.430625 -0.011,-0.02208 0.36437,0.419584 -0.0221,-0.02208 0.33125,0.419583 -0.0221,-0.02208 0.30917,0.419584 -0.0221,-0.03312 0.28708,0.452708 -0.0331,-0.04417 0.28709,0.518959 -0.0331,-0.05521 0.24291,0.541042 -0.0221,-0.04417 0.19875,0.574167 -0.011,-0.04417 0.16563,0.607292 -0.011,-0.04417 0.1325,0.6625 -0.011,-0.04417 0.11041,0.72875 -0.011,-0.03313 0.0662,0.717708 v -0.03313 l 0.0442,0.706667 v -0.01102 l 0.011,0.673542 v -0.01104 0.6625 -0.02208 l -0.011,0.618333 v -0.02208 l -0.0331,0.618325 0.011,-0.02208 -0.0552,0.607291 v -0.02208 l -0.0662,0.574167 v -0.02208 l -0.0883,0.552084 v -0.02208 l -0.0994,0.507917 0.011,-0.02208 -0.11041,0.474791 0.011,-0.02208 -0.12146,0.46375 v -0.01104 l -0.12146,0.3975 0.011,-0.01104 -0.12146,0.375416 v -0.02211 l -0.12146,0.342292 0.011,-0.02208 -0.1325,0.342292 0.011,-0.02208 -0.15458,0.353333 0.011,-0.02208 -0.16562,0.33125 0.011,-0.02208 -0.15459,0.298125 0.011,-0.02208 -0.16563,0.287083 0.011,-0.02208 -0.19875,0.298125 0.0221,-0.03312 -0.22083,0.320208 0.0221,-0.03312 -0.27604,0.342292 0.0221,-0.03313 -0.29813,0.320208 0.0331,-0.03312 -0.34229,0.33125 0.0221,-0.02208 -0.36437,0.320208 v 0 l -0.32021,0.276042 -0.0221,0.02208 -0.27604,0.253959 -0.011,0.01104 -0.25396,0.253959 -0.011,0.01104 -0.23187,0.231875 v 0 l -0.22084,0.231875 v -0.01104 l -0.19875,0.209791 v -0.01104 l -0.17667,0.176666 h 0.011 l -0.19875,0.176667 0.011,-0.01104 -0.1877,0.165625 h 0.011 l -0.18771,0.165626 h -0.011 l -0.15459,0.143542 v 0 l -0.15458,0.143541 h -0.011 l -0.1325,0.121457 v 0 l -0.11042,0.110419 v 0 l -0.11041,0.09937 v 0 l -0.14355,0.143541 h -0.011 l -0.17664,0.176642 v 0 l -0.24291,0.242917 v 0 l -0.26501,0.253958 v 0 l -0.30916,0.298127 v -0.01104 l -0.32021,0.309168 v 0 l -0.30917,0.287084 v 0 l -0.27604,0.264999 v 0 l -0.28708,0.265001 v 0 l -0.265,0.253958 v 0 l -0.23188,0.231875 -0.011,0.01104 -0.20979,0.209791 h -0.011 l -0.18771,0.19875 0.011,-0.01104 -0.16562,0.165626 0.011,-0.01104 -0.16563,0.154585 0.011,-0.01104 -0.16562,0.143542 v 0.01104 l -0.12146,0.110416 -0.011,0.01104 -0.11042,0.09938 -0.011,0.01104 -0.0994,0.09938 -0.011,0.02208 -0.0883,0.09937 -0.0221,0.01104 -0.0773,0.09937 -0.0221,0.02209 -0.0773,0.08833 -0.011,0.02208 -0.0662,0.08833 -0.0552,0.09937 -0.0552,0.09938 -0.0442,0.110416 -0.0331,0.110416 -0.011,0.05521 -0.0331,0.121457 v 0.01104 l -0.0221,0.121459 v -0.01104 l -0.0221,0.09938 0.0221,-0.05521 -0.0221,0.06625 0.0221,-0.06625 -0.011,0.02208 0.0221,-0.05521 v 0.01104 l 0.0221,-0.03312 h -0.011 l 0.0221,-0.02208 h -0.011 l 0.12146,-0.1325 -0.0221,0.01104 0.32021,-0.154583 -0.0442,0.01104 0.0773,-0.02208 -0.0331,0.01104 -0.11042,0.02209 h -0.011 l -0.13249,0.05521 h -0.011 l -0.0994,0.06625 -0.011,0.01104 -0.0773,0.06625 -0.011,0.01104 -0.0552,0.07729 -0.011,0.01104 0.91646,-0.20979 v 0 l 0.29812,0.375414 v 0 l 0.011,0.02209 v 0 l -0.011,-0.03313 v 0 l -0.0331,-0.07729 v 0 l -0.0663,-0.110415 h -0.011 c -0.0442,-0.07729 -0.11042,-0.132501 -0.18771,-0.176665 v 0 c -0.12146,-0.06625 -0.24292,-0.09938 -0.37542,-0.09938 v 0 c -0.11041,0.01104 -0.22083,0.04417 -0.3202,0.09938 h -0.011 c -0.0552,0.03312 -0.11042,0.07729 -0.15459,0.121457 v 0.01104 l -0.0663,0.07729 v 0 c -0.20979,0.320207 -0.1325,0.750832 0.18771,0.960626 0.30917,0.20979 0.73979,0.132498 0.94959,-0.187709 v 0 l -0.0663,0.07729 v 0 l -0.15459,0.132501 v 0 l -0.32021,0.08833 v 0 l -0.37541,-0.09937 v 0.01104 l -0.18771,-0.176665 v 0 l -0.0773,-0.110421 v 0 l -0.0221,-0.07729 v 0 l -0.0221,-0.03313 v 0 l 0.011,0.03313 v 0 c 0.0552,0.154583 0.16563,0.287084 0.30917,0.364374 v 0 c 0.30917,0.176667 0.70667,0.09938 0.90542,-0.19875 l 0.011,-0.01104 -0.0662,0.07729 h 0.011 l -0.0773,0.06625 v 0 l -0.0994,0.06625 0.011,-0.01104 -0.13251,0.05521 h 0.011 l -0.11041,0.02208 0.0221,-0.01104 0.0773,-0.01104 h 0.0442 c 0.11041,-0.03313 0.22083,-0.08833 0.30916,-0.165624 l 0.0221,-0.02209 c 0.0442,-0.04417 0.0883,-0.08833 0.12146,-0.143542 v 0 l 0.011,-0.02208 0.011,-0.01104 0.011,-0.03313 0.011,-0.01104 0.0221,-0.05521 0.011,-0.02208 0.0221,-0.06625 0.0221,-0.06625 0.011,-0.04417 0.011,-0.09938 0.011,-0.01104 0.0221,-0.110416 -0.011,0.01104 0.0331,-0.121457 -0.0221,0.05521 0.0331,-0.110418 -0.0331,0.110418 0.0442,-0.09938 -0.0552,0.09938 0.0552,-0.08833 -0.011,0.02208 0.0662,-0.08833 -0.011,0.02208 0.0773,-0.09937 -0.011,0.02208 0.0883,-0.09937 -0.011,0.01104 0.0994,-0.09938 -0.011,0.01104 0.11042,-0.09937 h -0.011 l 0.12145,-0.110419 v 0 l 0.15459,-0.143541 v 0 l 0.16562,-0.154583 0.011,-0.01104 0.17667,-0.165624 v -0.01104 l 0.18771,-0.187708 v 0 l 0.20979,-0.209791 v 0.01104 l 0.23188,-0.231873 v 0 l 0.25395,-0.253962 v 0.01104 l 0.28709,-0.27604 -0.011,0.01104 0.28708,-0.264999 v 0 l 0.30916,-0.298127 v 0 l 0.32021,-0.298125 v 0 l 0.30917,-0.298124 0.011,-0.01104 0.265,-0.253958 v 0 l 0.24292,-0.231875 h -0.011 l 0.18771,-0.176668 v 0 l 0.14354,-0.132501 h -0.011 l 0.11041,-0.09938 v 0 l 0.11042,-0.09937 v 0 l 0.1325,-0.121457 v 0 l 0.14354,-0.132501 v 0 l 0.16563,-0.143542 h -0.011 l 0.1877,-0.165624 h 0.011 l 0.17667,-0.165626 0.011,-0.01104 0.19875,-0.187709 h 0.011 l 0.17666,-0.187709 h 0.011 l 0.19875,-0.20979 h 0.011 l 0.22085,-0.220833 v 0 l 0.23187,-0.231875 h -0.011 l 0.265,-0.253958 -0.0221,0.01104 0.27605,-0.253958 -0.011,0.01104 0.3202,-0.276042 v 0 l 0.36438,-0.320208 0.0331,-0.02208 0.33125,-0.33125 0.0331,-0.03312 0.29812,-0.320208 0.0221,-0.02208 0.27605,-0.342292 0.0221,-0.03313 0.23187,-0.309167 0.0221,-0.03313 0.19875,-0.298125 0.011,-0.02208 0.17667,-0.298125 0.011,-0.02208 0.15458,-0.298125 0.0221,-0.03312 0.15458,-0.33125 0.011,-0.02208 0.15458,-0.364375 0.011,-0.01104 0.13251,-0.342292 0.011,-0.02208 0.12145,-0.33125 v -0.02208 l 0.12146,-0.386458 0.011,-0.01104 0.12146,-0.408541 v -0.02208 l 0.12146,-0.46375 0.011,-0.02208 0.11041,-0.474792 v -0.02208 l 0.0994,-0.518958 v -0.02208 l 0.0884,-0.552121 v -0.02208 l 0.0773,-0.574167 v -0.02208 l 0.0552,-0.607292 v -0.03312 l 0.0331,-0.618333 v -0.02208 l 0.011,-0.607291 v -0.02208 -0.6625 -0.01104 l -0.0221,-0.684584 v -0.01104 l -0.0331,-0.706667 v -0.03315 l -0.0773,-0.717708 v -0.03313 l -0.0994,-0.717709 -0.011,-0.04417 -0.1325,-0.6625 -0.011,-0.04417 -0.16562,-0.607292 -0.011,-0.04417 -0.19875,-0.574167 -0.0221,-0.04417 -0.23188,-0.552064 -0.0331,-0.04417 -0.27604,-0.518958 -0.0221,-0.04417 -0.28708,-0.452708 -0.0221,-0.02208 -0.30917,-0.430625 -0.011,-0.02208 -0.33125,-0.419583 -0.0221,-0.02208 -0.35334,-0.419584 -0.0221,-0.02208 -0.38646,-0.419583 -0.0221,-0.02208 -0.43063,-0.441666 -0.0221,-0.01104 -0.46375,-0.441667 -0.011,-0.01104 -0.47479,-0.430625 -0.011,-0.01104 -0.49687,-0.430625 -0.011,-0.01104 -0.51896,-0.441666 -0.011,-0.01104 -0.51896,-0.419583 v -0.01104 l -0.46375,-0.375417 -0.0221,-0.01104 -0.48583,-0.375417 -0.0221,-0.02208 -0.51896,-0.353333 -0.0331,-0.02208 -0.54105,-0.33125 -0.0331,-0.02208 -0.57417,-0.309167 -0.0442,-0.02208 -0.6073,-0.276042 -0.0331,-0.01104 -0.60729,-0.242916 -0.0442,-0.01104 -0.61833,-0.19875 -0.0442,-0.01104 -0.65146,-0.165625 -0.0331,-0.01104 -0.64042,-0.110417 -0.0442,-0.01104 -0.62937,-0.07729 -0.0331,-0.01104 -0.65145,-0.04417 h -0.0442 l -0.68459,-0.01104 h -0.0442 l -0.76187,0.03312 h -0.0331 l -0.71771,0.06625 h -0.0221 l -0.806045,0.08833 -0.02208,0.01104 -0.828125,0.121458 h -0.02208 l -0.783959,0.143542 -0.02208,0.01104 -0.783958,0.165625 -0.02208,0.01104 -0.828125,0.220833 h -0.02209 l -0.795,0.242917 -0.02208,0.01104 -0.806042,0.287083 -0.03312,0.01104 -0.772917,0.320208 -0.03313,0.01104 -0.695625,0.33125 -0.03312,0.02208 -0.695625,0.375416 -0.04417,0.01104 -0.651459,0.408542 -0.03313,0.02208 -0.585208,0.408541 -0.03313,0.03312 -0.552083,0.430625 -0.03313,0.03312 -0.507917,0.46375 -0.03313,0.03312 -0.452708,0.474792 -0.03313,0.03312 -0.375417,0.452708 -0.03313,0.03312 -0.364375,0.496875 -0.02208,0.04417 -0.342292,0.541042 -0.03313,0.04417 -0.309167,0.563125 -0.02208,0.04417 -0.276042,0.59625 -0.01104,0.04417 -0.265,0.684584 -0.01104,0.04417 -0.209792,0.684583 -0.01104,0.04417 -0.165625,0.72875 -0.01104,0.04417 -0.1325,0.772917 v 0.03313 l -0.09938,0.806041 v 0.02208 l -0.06625,0.883333 v 0.03312 l -0.03313,0.960625 v 0.02208 0.982709 0.03313 l 0.03313,0.971666 0.01104,0.03312 0.07729,0.9275 0.01104,0.03312 0.121458,0.883334 v 0.03312 l 0.165625,0.839166 v 0.03312 l 0.187709,0.772917 0.01104,0.03313 0.220834,0.750833 0.01104,0.03312 0.265,0.739792 0.01104,0.03312 0.298125,0.72875 0.02208,0.04417 0.342292,0.717708 0.02208,0.03313 0.375417,0.673542 0.02208,0.03313 0.386459,0.629375 0.02208,0.02208 0.386458,0.552083 0.02208,0.03313 0.386458,0.496875 0.02208,0.02208 0.3975,0.474791 0.01104,0.02208 0.386458,0.40854 0.02208,0.02209 0.419583,0.40854 0.01104,0.02209 0.452708,0.408541 0.02208,0.02208 0.441667,0.375418 0.02208,0.01104 0.452709,0.353332 0.02208,0.01104 0.419583,0.309169 0.01104,0.01104 0.386458,0.264998 0.01104,0.01104 0.375417,0.242917 v 0 l 0.353406,0.23189 v 0 l 0.33125,0.209793 v 0 l 0.320208,0.209791 -0.01104,-0.01104 0.287083,0.187708 v 0 l 0.253958,0.176665 -0.01104,-0.01104 0.231875,0.154583 v 0 l 0.176666,0.132501 v -0.01104 l 0.165625,0.121457 h -0.01104 l 0.143541,0.09937 h -0.01104 l 0.121458,0.08833 -0.05521,-0.04417 0.05521,0.04417 -0.08833,-0.08833 0.02208,0.02209 v 0 0 l 0.01104,0.01104 v 0.01104 l 0.01104,0.01104 0.01104,0.01104 0.01104,0.01104 0.01104,0.01104 0.01104,0.01104 v 0.01104 l 0.02208,0.01104 0.01104,0.01104 0.01104,0.01104 v 0.01104 l 0.02208,0.01104 v 0 l 0.02208,0.01104 v 0.01104 l 0.01104,0.01104 h 0.01104 v 0.01104 l 0.02208,0.01104 v 0 l 0.03312,0.02208 v 0 l 0.04417,0.04417 -0.01104,-0.01104 0.06625,0.05521 v 0 l 0.08833,0.07729 -0.01104,-0.01104 0.110416,0.09938 v 0 l 0.08833,0.07729 v 0 l 0.09937,0.08833 h -0.01104 l 0.121458,0.110416 -0.01104,-0.01104 0.154583,0.143542 h -0.01104 l 0.187709,0.187708 v 0 l 0.220833,0.220835 v 0 l 0.253958,0.253958 v 0.01106 l 0.265,0.253957 0.01104,0.01104 0.253958,0.242917 0.01104,0.01104 0.242917,0.220832 0.02208,0.02208 0.309167,0.253958 0.03313,0.02209 0.276041,0.209791 0.04417,0.03313 0.253958,0.165624 0.04417,0.02208 0.242916,0.132501 0.0552,0.02208 0.23188,0.09938 0.0552,0.02208 0.22083,0.07729 0.0442,0.01104 0.25396,0.05521 0.0442,0.01104 0.22083,0.04417 h 0.0331 l 0.20979,0.03312 h 0.0221 l 0.19875,0.02208 h 0.011 l 0.17667,0.02208 -0.0442,-0.01104 0.0994,0.02208 -0.0994,-0.03313 0.0442,0.02208 -0.0331,-0.01104 0.0221,0.01104 h 0.011 l 0.0221,0.01104 h 0.0221 v 0.01104 h 0.011 v 0 h 0.011 0.011 v 0 l 0.011,0.01104 v 0 h 0.011 0.011 l 0.011,0.01104 h 0.011 v 0 h 0.0221 l 0.011,0.01104 h 0.0221 0.011 l 0.0221,0.01104 h 0.011 0.011 0.0221 l 0.011,0.01104 h 0.011 c 0.37542,0.05521 0.72875,-0.209793 0.78396,-0.585211 0.0552,-0.375414 -0.20979,-0.72875 -0.58521,-0.783958 z"
       id="path705" />
    <path
       style="fill:none;fill-opacity:1;fill-rule:nonzero;stroke:#000000;stroke-width:0.965;stroke-dasharray:none;stroke-opacity:1"
       d="m 103.948,78.726977 v 0.01104 0 0.01104 0 0.01104 c 0,0.375418 0.30917,0.684583 0.68459,0.684583 0.37541,0 0.68458,-0.309165 0.68458,-0.684583 v -0.01104 c 0,-0.375417 -0.30917,-0.684583 -0.68458,-0.684583 -0.37542,0 -0.68459,0.309166 -0.68459,0.684583 v 0.02208 l 0.19875,-0.485833 h -0.011 c -0.265,0.265002 -0.265,0.706668 0.011,0.971667 0.265,0.265001 0.69563,0.265001 0.97167,0 v 0 h -0.011 0.011 l -0.011,0.01104 0.011,-0.01104 -0.0331,0.02208 0.0221,-0.01104 -0.0442,0.03313 0.0662,-0.04417 0.011,-0.01104 0.0994,-0.08833 h 0.011 l 0.12146,-0.09938 v 0.01104 l 0.17666,-0.143542 -0.011,0.01104 0.20979,-0.154585 v 0 l 0.24292,-0.176665 0.011,-0.01104 0.22083,-0.165627 0.011,-0.01104 0.16563,-0.132501 0.011,-0.01104 0.11041,-0.09938 c 0.28709,-0.242916 0.32021,-0.684583 0.0773,-0.971666 -0.25395,-0.287084 -0.68458,-0.320209 -0.97166,-0.06625 l -0.11042,0.08833 h 0.011 l -0.16562,0.12146 0.0221,-0.01104 -0.22084,0.176665 0.011,-0.02208 -0.23187,0.176665 v 0 l -0.22084,0.165627 h -0.011 l -0.17666,0.143542 v 0 l -0.1325,0.09937 v 0 l -0.0994,0.07729 0.0221,-0.01104 -0.0662,0.04417 -0.0331,0.02208 -0.0221,0.01104 -0.0221,0.03312 h -0.011 l -0.011,0.01104 v 0.01104 l -0.011,0.01104 h -0.011 c -0.26501,0.265002 -0.26501,0.706668 0.011,0.971667 0.265,0.265001 0.69562,0.265001 0.97166,0 v 0 c 0.1325,-0.132498 0.19875,-0.309166 0.19875,-0.485834 v -0.02208 c 0,-0.375417 -0.30916,-0.684583 -0.68458,-0.684583 -0.37542,0 -0.68458,0.309166 -0.68458,0.684583 v 0.01104 c 0,0.375418 0.30916,0.684583 0.68458,0.684583 0.37542,0 0.68458,-0.309165 0.68458,-0.684583 v -0.01104 0 -0.01104 0 -0.01104 c 0,-0.375415 -0.30916,-0.684583 -0.68458,-0.684583 -0.37542,0 -0.68458,0.309168 -0.68458,0.684583 z"
       id="path707" />
    <path
       style="fill:none;fill-opacity:1;fill-rule:nonzero;stroke:#000000;stroke-width:0.965;stroke-dasharray:none;stroke-opacity:1"
       d="m 97.521752,59.139061 v -0.01104 c -0.165625,-0.298125 -0.53,-0.430625 -0.850208,-0.309167 -0.33125,0.1325 -0.507917,0.474792 -0.419584,0.806042 0.07729,0.342292 0.3975,0.563125 0.750834,0.518958 v 0 c 0.05521,-0.01104 0.110416,-0.02208 0.165625,-0.04417 v 0 c 0.209791,-0.07729 0.364375,-0.253959 0.419583,-0.46375 0.05521,-0.220834 0.01104,-0.441667 -0.1325,-0.618334 h -0.01104 l -0.09937,-0.09938 v 0 c -0.298125,-0.231875 -0.717708,-0.187708 -0.960625,0.09938 -0.231875,0.287084 -0.19875,0.717709 0.08833,0.960625 v 0 l 0.01104,0.01104 v 0 c 0.287084,0.242917 0.717709,0.19875 0.960625,-0.07729 0.242917,-0.287083 0.220834,-0.717708 -0.05521,-0.960625 l -0.01104,-0.01104 -0.01104,-0.01104 -0.01104,-0.01104 -0.01104,-0.01104 -0.03313,-0.01104 -0.01104,-0.01104 -0.02208,-0.03313 h -0.01104 l -0.06625,-0.05521 0.01104,0.02208 -0.09937,-0.08833 0.02208,0.02208 -0.110417,-0.09938 v 0 l -0.121458,-0.09938 v -0.01104 l -0.121459,-0.09938 h -0.01104 l -0.1325,-0.121459 v 0 l -0.143551,-0.12144 h -0.01104 l -0.121458,-0.09937 v 0 l -0.110417,-0.09938 h -0.01104 l -0.121459,-0.09938 v 0 l -0.08833,-0.07729 -0.03313,-0.02208 -0.08833,-0.05521 -0.03313,-0.02208 -0.07729,-0.05521 v 0 l -0.09937,-0.05521 0.05521,0.03313 -0.08833,-0.06625 0.09938,0.09938 -0.06625,-0.08833 0.07729,0.121459 -0.05521,-0.110417 0.04417,0.09938 -0.05521,-0.165625 0.02208,0.08833 -0.03312,-0.176666 0.01104,0.05521 -0.02208,-0.165625 v 0.01104 l -0.01104,-0.187709 h -0.01104 l -0.01104,-0.165625 v 0.02208 l -0.01104,-0.19875 v 0.01104 l -0.01104,-0.209791 v 0.02208 l -0.01104,-0.220833 v 0.01104 -0.209791 0.02208 -0.176667 0.01104 l 0.01104,-0.143542 v 0.02208 l 0.01104,-0.154584 v 0.03313 l 0.02208,-0.165625 -0.01104,0.03313 0.03313,-0.165625 -0.01104,0.04417 0.04417,-0.165625 -0.02208,0.06625 0.06625,-0.187709 -0.03313,0.07729 0.08833,-0.154583 -0.03313,0.05521 0.09938,-0.154583 -0.02208,0.04417 0.08833,-0.121459 -0.02208,0.02208 0.08833,-0.09937 -0.01104,0.02208 0.08833,-0.09937 -0.01104,0.01104 0.07729,-0.08833 v 0 l 0.08833,-0.08833 v 0 l 0.07729,-0.07729 0.01104,-0.01104 0.08833,-0.08833 v 0 l 0.110417,-0.110416 -0.01104,0.01104 0.08833,-0.09938 -0.01104,0.02208 0.08833,-0.09938 -0.02208,0.02208 0.121458,-0.09938 -0.03313,0.02208 0.09938,-0.06625 -0.03313,0.01104 0.09938,-0.05521 -0.03313,0.01104 0.09938,-0.05521 -0.03313,0.01104 0.09938,-0.05521 -0.02208,0.02208 0.09938,-0.05521 -0.03313,0.01104 0.121458,-0.05521 -0.02208,0.01104 0.143541,-0.06625 v 0.01104 l 0.165625,-0.07729 -0.01104,0.01104 0.176666,-0.07729 h -0.01104 l 0.143541,-0.05521 -0.01104,0.01104 0.187708,-0.06625 h -0.02208 l 0.187708,-0.05521 h -0.02208 l 0.176666,-0.04417 h -0.03313 l 0.187709,-0.04417 -0.03313,0.01104 0.165625,-0.03312 -0.03313,0.01104 0.19875,-0.03313 h -0.03312 l 0.19875,-0.01104 h -0.02208 l 0.209792,-0.01104 h -0.02208 l 0.220805,-0.01105 h -0.02208 0.209791 -0.02208 0.19875 -0.01104 l 0.220834,0.01104 h -0.01104 0.176663 v 0 l 0.15459,0.01104 v 0 h 0.1325 v 0 h 0.12146 v 0 l 0.11041,0.01104 h 0.011 0.0994 v 0 h 0.0883 v 0 h 0.0662 0.011 0.0442 0.0221 0.0442 0.011 0.0773 v 0 l 0.0552,-0.01104 h -0.011 0.0773 -0.0221 0.0773 -0.0331 0.0662 -0.0552 l 0.0883,0.01104 -0.0773,-0.01104 0.0552,0.01104 -0.0442,-0.01104 0.0662,0.01104 -0.0331,-0.01104 0.0773,0.03312 -0.0221,-0.01104 0.0662,0.03312 -0.011,-0.01104 0.0773,0.03313 h -0.0111 l 0.0994,0.03312 h -0.011 l 0.0883,0.03312 -0.0331,-0.01104 0.0883,0.04417 -0.0221,-0.01104 0.0773,0.04417 -0.0221,-0.02208 0.12146,0.07729 -0.0331,-0.02208 0.1325,0.08833 -0.0221,-0.01104 0.12146,0.08833 -0.011,-0.01104 0.11041,0.08833 v 0 l 0.0883,0.07729 v 0 l 0.11042,0.07729 h -0.011 l 0.12146,0.08833 v 0 l 0.0994,0.08833 -0.011,-0.01104 0.11042,0.08833 -0.011,-0.01104 0.0883,0.07729 -0.011,-0.01104 0.11041,0.09938 -0.0221,-0.01104 0.0883,0.08833 -0.011,-0.02208 0.0773,0.07729 -0.0221,-0.01104 0.0773,0.07729 -0.0221,-0.02208 0.0773,0.08833 -0.0221,-0.03312 0.0552,0.08833 -0.0331,-0.05521 0.0662,0.110417 -0.0331,-0.06625 0.0552,0.110416 -0.0221,-0.05521 0.0442,0.121458 -0.011,-0.03312 0.0331,0.110417 -0.011,-0.03312 0.0331,0.110417 v -0.02208 l 0.0221,0.110416 v -0.02208 l 0.0221,0.110417 v -0.01104 l 0.0221,0.09938 -0.011,-0.01104 0.0221,0.09938 v -0.01104 l 0.0221,0.110417 v -0.01104 l 0.0221,0.09937 v -0.01104 l 0.0221,0.1325 -0.011,-0.01104 0.0221,0.143542 v -0.02208 l 0.0221,0.165625 v -0.01104 l 0.0221,0.154583 -0.011,-0.01104 0.0221,0.176667 v -0.01104 l 0.011,0.176667 v -0.02208 l 0.011,0.187708 -0.011,-0.02208 0.011,0.176666 v -0.01104 0.176666 -0.01104 0.143541 -0.01104 0.110416 0 0.110417 0 l -0.011,0.121458 v 0.01104 0.09938 0 0.05521 0.01104 l 0.011,0.06625 v 0.01104 0.08833 0 0.06625 0 0.04417 -0.01104 0.03313 0 0.03313 -0.01104 0.05521 -0.03313 0.07729 -0.03312 l -0.011,0.05521 0.011,-0.02208 -0.011,0.05521 v -0.03313 l -0.011,0.07729 0.011,-0.03313 -0.0221,0.08833 0.011,-0.04417 -0.0442,0.121458 0.011,-0.02208 -0.0662,0.154583 0.011,-0.03313 -0.0773,0.187709 0.011,-0.03313 -0.0773,0.165625 0.011,-0.03313 -0.12145,0.220833 0.0221,-0.03313 -0.15459,0.220833 0.0221,-0.02208 -0.16562,0.231875 0.011,-0.01104 -0.17667,0.220834 h 0.011 l -0.18771,0.231875 v 0 l -0.17666,0.220833 -0.011,0.01104 -0.17667,0.220833 v 0.01104 l -0.15458,0.209791 -0.011,0.01104 -0.14355,0.19875 -0.011,0.02208 -0.12145,0.176667 v 0 l -0.11042,0.165625 0.011,-0.01104 -0.0994,0.154584 v 0 l -0.0883,0.121458 v 0.01104 l -0.0662,0.09937 h -0.011 l -0.0331,0.06625 -0.011,0.01104 -0.0221,0.04417 -0.011,0.01104 -0.011,0.02208 -0.011,0.02208 h -0.0111 l -0.011,0.03313 v 0 l -0.011,0.02208 -0.011,0.01104 0.011,-0.02208 -0.011,0.03312 v -0.01104 0.01104 -0.01104 l -0.011,0.03313 v -0.01104 l -0.011,0.02208 v 0 0.01104 0 l -0.0221,0.02208 -0.011,0.02208 -0.011,0.03312 -0.0221,0.02208 -0.0221,0.05521 -0.011,0.02208 -0.0331,0.06625 v 0.01104 l -0.0331,0.07729 v 0.01104 l -0.0331,0.07729 -0.011,0.01104 -0.0331,0.08833 v 0.01104 l -0.0442,0.09938 v 0.01104 l -0.0442,0.110417 v 0.01104 l -0.0442,0.121487 v 0.01104 l -0.0442,0.121458 v 0.01104 l -0.0442,0.121462 v 0.01104 l -0.0442,0.143541 -0.011,0.02208 -0.0331,0.1325 -0.011,0.04417 -0.0221,0.09937 v 0.02208 l -0.0221,0.08833 v 0.03312 l -0.011,0.07729 v 0.03313 l -0.011,0.09937 -0.011,0.02208 v 0.08833 0.01104 l -0.011,0.09937 v 0.01104 0.110416 0.01104 0.07729 0.01104 0.08833 0.01104 0.08833 0 0.110416 0.01104 0.110417 0 0.09937 0 0.08833 -0.01104 0.110417 0 0.1325 0 0.143542 0 0.143541 0 0.187709 0 0.187708 0 0.19875 0 0.176667 0 0.165625 0 0.121458 0 0.121458 0 0.110417 0 0.09938 0 0.09937 -0.01104 0.110417 0 0.07729 -0.01104 0.06625 -0.01104 l -0.011,0.07729 v 0 0.04417 0.01104 0.04417 0.01104 0.01104 0.01104 0.01104 0 0.01104 0 0.02208 -0.01104 0.05521 -0.01104 0.05521 0 0.06625 0.01104 0.07729 0 0.08833 0 0.110416 0 0.121459 0 0.06625 0 0.05521 0 0.02208 0 0 c 0,0.386459 0.29813,0.695625 0.68459,0.695625 0.37542,0.01104 0.68458,-0.298125 0.69562,-0.673541 v -0.01098 c 0,-0.386458 -0.30916,-0.695625 -0.68458,-0.695625 -0.37542,0 -0.69563,0.298125 -0.69563,0.673542 v 0.01104 l 0.011,0.09938 v 0 c 0.011,0.110417 0.0552,0.220834 0.11042,0.309167 h 0.011 l 0.0663,0.08833 v 0.01104 l -0.17667,-0.353333 v 0.01104 l 0.14355,-0.563125 -0.011,0.01104 c -0.0994,0.121458 -0.15459,0.276042 -0.15459,0.430625 v 0.03312 c 0,0.375417 0.30917,0.684583 0.68459,0.684583 0.38646,0 0.69562,-0.309166 0.69562,-0.684583 v -0.02208 l -0.16562,0.430625 0.011,-0.01104 c 0.1325,-0.154583 0.1877,-0.364375 0.15458,-0.563125 l -0.011,-0.01104 c -0.0221,-0.1325 -0.0883,-0.253958 -0.17667,-0.353333 v 0 l 0.0662,0.07729 v 0 l 0.11042,0.309166 v -0.01104 l 0.011,0.08833 v 0 c 0,-0.386458 -0.30917,-0.695625 -0.68458,-0.695625 -0.37542,0 -0.69563,0.298125 -0.69563,0.673542 v 0.01104 c 0,0.386459 0.29813,0.695625 0.68458,0.695625 0.37542,0.01104 0.68459,-0.298125 0.69563,-0.673541 v -0.01104 0 -0.02208 0 -0.05521 -0.01104 -0.06625 0 -0.121459 0 -0.110416 0 -0.08833 0 -0.07729 0 -0.06625 0 -0.05521 0 -0.05521 0 -0.02208 0 -0.01104 0 0 0.01104 -0.02208 0.02208 -0.04417 0.01104 -0.04417 0 -0.07729 -0.01104 l 0.011,-0.06625 v -0.01104 -0.08833 0 -0.110417 0 -0.09937 -0.01104 -0.09938 0 -0.110416 0 -0.121459 0.01104 -0.121458 0 -0.154584 0 -0.187708 0 -0.19875 0 -0.187708 -0.01104 -0.176667 0 -0.154583 0.01104 -0.143542 0 -0.1325 0 -0.110417 0 -0.09937 0 l -0.011,-0.09938 v 0 -0.110416 0.01104 -0.110416 0 -0.08833 0.01104 -0.08833 0 l 0.011,-0.07729 v 0.01104 -0.121459 0.01104 -0.09937 0.02208 l 0.011,-0.08833 v 0.01104 l 0.011,-0.09937 -0.011,0.02208 0.011,-0.08833 v 0.03312 l 0.0221,-0.09937 -0.011,0.03312 0.0221,-0.09937 -0.011,0.03312 0.0331,-0.121459 v 0.02208 l 0.0442,-0.154588 v 0 l 0.0442,-0.121458 h -0.011 l 0.0442,-0.121458 v 0.01104 l 0.0442,-0.121458 -0.011,0.01104 0.0442,-0.121459 v 0.01104 l 0.0331,-0.09937 v 0.01104 l 0.0331,-0.09938 v 0.01104 l 0.0331,-0.07729 -0.011,0.01104 0.0331,-0.07729 v 0.01104 l 0.0331,-0.06625 -0.011,0.03312 0.0221,-0.05521 -0.0221,0.03313 0.0221,-0.04417 v 0.02208 l 0.011,-0.03312 v 0 -0.01104 h 0.011 v -0.01104 l 0.011,-0.01104 0.011,-0.02208 v -0.01104 l 0.011,-0.01104 0.011,-0.01104 0.0221,-0.04417 0.011,-0.02208 v -0.01104 l -0.011,0.02208 0.011,-0.01104 -0.0221,0.03312 0.011,-0.01104 -0.011,0.02208 0.011,-0.03312 v 0.01104 l 0.0331,-0.05521 -0.011,0.01104 0.0442,-0.06625 v 0.01104 l 0.0662,-0.09937 h -0.011 l 0.0883,-0.1325 v 0 l 0.0994,-0.143542 0.011,-0.01104 0.11042,-0.165625 v 0 l 0.11042,-0.165625 -0.011,0.01104 0.14353,-0.198748 -0.0221,0.02208 0.15459,-0.209791 v 0.01104 l 0.17666,-0.220832 h -0.011 l 0.18771,-0.220833 v -0.01104 l 0.18771,-0.231875 0.011,-0.01104 0.16562,-0.231875 0.011,-0.01104 0.16563,-0.231875 0.0221,-0.03313 0.14354,-0.220834 0.0221,-0.03313 0.12146,-0.220833 0.0221,-0.03313 0.0883,-0.165625 0.011,-0.03313 0.0773,-0.176667 0.011,-0.02208 0.0663,-0.165625 0.011,-0.03313 0.0442,-0.121458 0.011,-0.05521 0.0221,-0.08833 0.011,-0.04417 0.0221,-0.07729 v -0.02208 l 0.011,-0.06625 v -0.02208 l 0.011,-0.05521 v -0.03313 -0.06625 l 0.011,-0.02208 v -0.06625 -0.01104 -0.04417 -0.01104 -0.03313 0 -0.05521 -0.01104 l -0.011,-0.06625 v 0 -0.07729 0.01104 -0.07729 0.01104 -0.05521 0 -0.09938 0 -0.110417 0 -0.110416 0 l 0.011,-0.110417 v -0.01104 -0.1325 -0.01104 -0.176667 -0.01104 l -0.011,-0.176666 v -0.01104 l -0.011,-0.187708 v -0.01104 l -0.011,-0.165625 v -0.02208 l -0.011,-0.176654 v -0.01104 l -0.0221,-0.165625 v -0.01104 l -0.0221,-0.165625 v -0.01104 l -0.0221,-0.143542 -0.011,-0.01104 -0.0221,-0.1325 v -0.01105 l -0.011,-0.09938 -0.011,-0.01104 -0.0221,-0.110417 v 0 l -0.0221,-0.09937 v 0 l -0.0111,-0.08833 -0.011,-0.01104 -0.0221,-0.110417 v -0.01104 l -0.0221,-0.09937 -0.011,-0.02208 -0.0331,-0.110417 -0.011,-0.03312 -0.0331,-0.110417 -0.011,-0.03312 -0.0442,-0.121458 -0.0221,-0.04417 -0.0552,-0.09938 -0.0331,-0.06625 -0.0662,-0.09938 -0.0331,-0.05521 -0.0552,-0.07729 -0.0221,-0.02208 -0.0662,-0.08833 -0.0221,-0.02208 -0.0662,-0.07729 -0.0221,-0.02208 -0.0773,-0.07729 -0.0221,-0.02208 -0.0883,-0.08833 -0.011,-0.01104 -0.11042,-0.09937 -0.011,-0.01104 -0.0883,-0.07729 -0.011,-0.01104 -0.0994,-0.08833 h -0.011 l -0.11042,-0.08833 -0.011,-0.01104 -0.11042,-0.08833 h -0.011 l -0.0994,-0.08833 v 0 l -0.0883,-0.06625 h -0.011 l -0.11041,-0.08833 -0.011,-0.01104 -0.12146,-0.08833 -0.011,-0.01104 -0.1325,-0.08833 -0.0331,-0.02208 -0.12146,-0.07729 -0.0331,-0.02208 -0.0773,-0.04417 -0.0331,-0.01104 -0.0883,-0.04417 -0.0221,-0.01104 -0.0994,-0.04417 h -0.011 l -0.0883,-0.04417 v 0 l -0.0662,-0.02208 -0.011,-0.01104 -0.0773,-0.02208 -0.0221,-0.01104 -0.0773,-0.02208 -0.0331,-0.01104 -0.0552,-0.02208 -0.0442,-0.01104 -0.0552,-0.01104 -0.0662,-0.01104 -0.0883,-0.01104 h -0.0552 l -0.0662,-0.01104 h -0.0442 -0.0773 -0.0221 l -0.0773,0.01104 v 0 h -0.0552 v 0 h -0.0663 0.011 -0.0552 0.0221 -0.0442 0.011 -0.0552 v 0 h -0.0883 v 0 h -0.0994 0.011 -0.11041 v 0 l -0.12146,-0.01104 v 0 h -0.12146 v 0 h -0.16563 v 0 l -0.176663,-0.01104 v 0 h -0.220834 -0.01104 l -0.187709,-0.01104 h -0.01104 -0.209792 -0.01104 l -0.22083,0.01104 h -0.02208 l -0.209792,0.01104 -0.02208,0.01104 -0.19875,0.01104 -0.03313,0.01104 -0.19875,0.02208 -0.02208,0.01104 -0.165625,0.02208 -0.03313,0.01104 -0.187708,0.04417 -0.03313,0.01104 -0.176667,0.05521 h -0.02208 l -0.187708,0.06625 h -0.02208 l -0.176666,0.06625 -0.02208,0.01104 -0.143541,0.05521 h -0.01104 l -0.176667,0.07729 h -0.01104 l -0.165625,0.07729 h -0.01105 l -0.1325,0.05521 -0.02208,0.01104 -0.110417,0.05521 -0.03313,0.01104 -0.09937,0.05521 -0.02208,0.01104 -0.09938,0.05521 -0.03312,0.02208 -0.08833,0.05521 -0.02208,0.02208 -0.09937,0.06625 -0.02208,0.01104 -0.09937,0.07729 -0.02208,0.02208 -0.110416,0.09938 -0.02208,0.01104 -0.09938,0.09937 -0.01104,0.01104 -0.08833,0.08833 -0.01104,0.01104 -0.110417,0.110417 v 0 l -0.08833,0.09938 v -0.01104 l -0.07733,0.08833 h -0.01104 l -0.07729,0.08833 h -0.01104 l -0.07729,0.08833 -0.01104,0.01104 -0.08833,0.09937 -0.02208,0.02208 -0.08833,0.09937 -0.02208,0.02208 -0.08833,0.121458 -0.02208,0.04417 -0.110417,0.154584 -0.03313,0.05521 -0.08833,0.165625 -0.03313,0.07729 -0.06625,0.176666 -0.03312,0.07729 -0.04417,0.176667 -0.01104,0.04417 -0.02208,0.176667 -0.01104,0.03313 -0.02208,0.165625 v 0.02208 l -0.01104,0.154583 -0.01104,0.02208 v 0.154583 0.01104 l -0.01108,0.187714 v 0.02208 0.209792 0.02208 l 0.01104,0.220834 v 0.01104 l 0.01104,0.220834 v 0.01104 l 0.02208,0.19875 v 0.01104 l 0.01104,0.165625 v -0.01104 l 0.02208,0.176667 v 0.01104 l 0.02208,0.165625 v 0.04417 l 0.03313,0.187709 0.02208,0.08833 0.05521,0.165625 0.04417,0.09937 0.05521,0.121458 c 0.03313,0.04417 0.05521,0.07729 0.08833,0.121459 l 0.06625,0.08833 0.110417,0.09938 0.08833,0.07729 0.06625,0.03313 0.09938,0.06625 v 0 l 0.08833,0.05521 -0.03312,-0.02208 0.07729,0.05521 -0.03313,-0.02208 0.08833,0.06625 v 0 l 0.121459,0.09938 v 0 l 0.110416,0.08833 v 0 l 0.121459,0.09938 v 0 l 0.143541,0.121458 v -0.01104 l 0.1325,0.121458 v 0 l 0.121459,0.09938 v 0 l 0.110416,0.09938 v 0 l 0.110417,0.08833 0.02208,0.02208 0.09937,0.08833 0.01104,0.01104 0.07729,0.04417 h -0.01104 l 0.03312,0.02208 -0.01104,-0.01104 0.02208,0.02208 -0.01104,-0.01104 0.01104,0.01104 -0.01104,-0.01104 v 0 c 0.187708,0.165625 0.441667,0.220833 0.684583,0.143541 0.231875,-0.07729 0.408542,-0.287083 0.452709,-0.53 0.04417,-0.242916 -0.04417,-0.496875 -0.231875,-0.651458 h -0.01104 0.01104 v 0 c -0.187709,-0.165625 -0.452709,-0.209792 -0.684584,-0.121458 -0.231875,0.08833 -0.408541,0.287083 -0.441666,0.541041 -0.04417,0.242917 0.05521,0.485834 0.253958,0.640417 v 0.01104 l -0.09934,-0.09938 v 0 c 0.220833,0.265 0.618333,0.33125 0.905417,0.1325 0.298125,-0.187709 0.3975,-0.574167 0.231875,-0.883334 -0.154584,-0.320208 -0.53,-0.452708 -0.850209,-0.33125 v 0 l 0.154584,-0.04417 v 0 c -0.231875,0.03313 -0.430625,0.165625 -0.53,0.375416 -0.110417,0.19875 -0.09938,0.441667 0.01104,0.640417 v 0 c 0.176667,0.342292 0.59625,0.46375 0.9275,0.276042 0.33125,-0.176667 0.46375,-0.59625 0.276042,-0.9275 z"
       id="path709" />
    <path
       style="fill:none;fill-opacity:1;fill-rule:nonzero;stroke:#000000;stroke-width:0.965;stroke-dasharray:none;stroke-opacity:1"
       d="m 102.13717,72.278644 h 0.011 l -0.25396,0.05521 h 0.0221 l -0.19875,-0.01104 h 0.011 0.011 0.0221 c 0.28709,0.06625 0.59625,-0.06625 0.73979,-0.320209 0.15459,-0.265 0.12146,-0.59625 -0.0883,-0.817083 l -0.011,-0.01104 c -0.20979,-0.220833 -0.54104,-0.287083 -0.81708,-0.143541 l -0.011,0.01104 c -0.28708,0.143542 -0.43062,0.46375 -0.35333,0.772916 v 0 c 0.0773,0.320209 0.36437,0.541044 0.69562,0.53 h 0.011 c 0.34229,-0.01104 0.62938,-0.264999 0.6625,-0.607291 0.0442,-0.342291 -0.17667,-0.6625 -0.49687,-0.750833 -0.33125,-0.08833 -0.68458,0.07729 -0.81709,0.3975 v 0 l 0.14355,-0.209792 h -0.011 l 0.0331,-0.02208 h -0.011 c -0.17666,0.176667 -0.25396,0.430625 -0.19875,0.673543 0.0552,0.242916 0.24292,0.430622 0.48584,0.496874 0.24291,0.06625 0.49687,0 0.67354,-0.176668 l 0.011,-0.01104 c 0.15458,-0.154582 0.22083,-0.364375 0.18771,-0.585208 v -0.01104 c -0.0552,-0.33125 -0.34229,-0.585208 -0.68459,-0.585208 h -0.0221 c -0.37541,0 -0.68458,0.309167 -0.68458,0.695625 0,0.375417 0.30917,0.684583 0.68458,0.684583 h 0.0221 l -0.68458,-0.585208 0.011,0.01104 0.18771,-0.585209 -0.011,0.01104 c -0.265,0.265 -0.265,0.684582 0,0.960624 0.25396,0.265002 0.68458,0.276043 0.96062,0.02208 v 0 l 0.0221,-0.02208 v 0 c 0.0662,-0.06625 0.11042,-0.1325 0.14354,-0.20979 v 0 c 0.0994,-0.220834 0.0773,-0.474792 -0.0552,-0.662501 -0.1325,-0.19875 -0.35333,-0.309166 -0.59625,-0.309166 h -0.011 l 0.68458,0.53 v -0.01104 l -0.35333,0.772915 h 0.011 l -0.81708,-0.143539 v 0.01104 c 0.20979,0.220832 0.51896,0.27604 0.795,0.154583 0.265,-0.121459 0.43062,-0.397499 0.3975,-0.695625 -0.0221,-0.298125 -0.24292,-0.541042 -0.53,-0.59625 l -0.0221,-0.01104 h 0.011 -0.011 c -0.0663,-0.01104 -0.1325,-0.02208 -0.19875,-0.01104 h -0.011 c -0.0883,0 -0.17667,0.02208 -0.25396,0.05521 l -0.011,0.01104 c -0.34229,0.154583 -0.49688,0.563125 -0.34229,0.905417 0.16562,0.353332 0.56312,0.507915 0.91646,0.342291 z"
       id="path711" />
  </g>
</svg>
